<?xml version="1.0" encoding="UTF-8"?>
<svg id="Layer_1" data-name="Layer 1" xmlns="http://www.w3.org/2000/svg" xmlns:xlink="http://www.w3.org/1999/xlink" viewBox="0 0 378.87 403.38">
  <defs>
    <style>
      .cls-1 {
        font-size: 18.28px;
      }

      .cls-1, .cls-2 {
        fill: #231f20;
        font-family: DINPro, DINPro;
      }

      .cls-3 {
        clip-path: url(#clippath-4);
      }

      .cls-4, .cls-5, .cls-6, .cls-7, .cls-8, .cls-9, .cls-10, .cls-11, .cls-12, .cls-13 {
        fill: none;
      }

      .cls-4, .cls-5, .cls-7, .cls-8, .cls-9, .cls-10, .cls-12, .cls-13 {
        stroke-linejoin: round;
      }

      .cls-4, .cls-5, .cls-9, .cls-10, .cls-12 {
        stroke: #010101;
      }

      .cls-4, .cls-8, .cls-10 {
        stroke-width: .5px;
      }

      .cls-14 {
        fill: #e6e6e5;
      }

      .cls-14, .cls-15, .cls-16, .cls-17 {
        fill-rule: evenodd;
      }

      .cls-15 {
        fill: #cccbca;
      }

      .cls-5, .cls-7 {
        stroke-width: 1px;
      }

      .cls-18, .cls-16 {
        fill: #fff;
      }

      .cls-7, .cls-8, .cls-13 {
        stroke: #eb2427;
      }

      .cls-19 {
        clip-path: url(#clippath-1);
      }

      .cls-8, .cls-10 {
        stroke-dasharray: 1 .5;
      }

      .cls-9 {
        stroke-width: .05px;
      }

      .cls-9, .cls-12 {
        stroke-linecap: round;
      }

      .cls-20 {
        clip-path: url(#clippath-3);
      }

      .cls-11 {
        clip-rule: evenodd;
      }

      .cls-21 {
        fill: #010101;
      }

      .cls-12 {
        stroke-width: .1px;
      }

      .cls-22 {
        clip-path: url(#clippath-2);
      }

      .cls-13 {
        stroke-width: 1.5px;
      }

      .cls-17 {
        fill: #b3b4b4;
      }

      .cls-23 {
        clip-path: url(#clippath);
      }

      .cls-2 {
        font-size: 10.24px;
      }
    </style>
    <clipPath id="clippath">
      <path class="cls-11" d="M211.25,32.43c-49.94-.52-103.18,1.63-150.85,5.55-1.69.06-1.77-.9,0-2.37C99.36,6.64,158.33,2.39,211.25,2.47c52.92-.09,112.11,3.99,151.07,32.96,1.77,1.47,1.69,2.43,0,2.37-47.67-3.92-101.13-5.89-151.07-5.38"/>
    </clipPath>
    <clipPath id="clippath-1">
      <path class="cls-11" d="M211.25,206.66c-49.94-.52-103.18,1.63-150.85,5.55-1.69.06-1.77-.9,0-2.37,38.96-28.97,97.93-33.23,150.85-33.14,52.92-.09,112.11,3.99,151.07,32.96,1.77,1.47,1.69,2.43,0,2.37-47.67-3.92-101.13-5.89-151.07-5.38"/>
    </clipPath>
    <clipPath id="clippath-2">
      <rect class="cls-6" x="53.32" y="226.61" width="126.99" height="99.34"/>
    </clipPath>
    <clipPath id="clippath-3">
      <path class="cls-11" d="M332.07,275.63c-89.16-.92-184.21,2.91-269.33,9.91-3.02.1-3.16-1.6,0-4.23,69.56-51.73,174.84-59.32,269.33-59.17,94.49-.15,200.16,7.12,269.72,58.85,3.16,2.63,3.02,4.33,0,4.23-85.11-7-180.55-10.52-269.72-9.6"/>
    </clipPath>
    <clipPath id="clippath-4">
      <path class="cls-11" d="M211.25,374.04c-49.94-.52-103.18,1.63-150.85,5.55-1.69.06-1.77-.9,0-2.37,38.96-28.97,97.93-33.23,150.85-33.14,52.92-.09,112.11,3.99,151.07,32.96,1.77,1.47,1.69,2.43,0,2.37-47.67-3.92-101.13-5.89-151.07-5.38"/>
    </clipPath>
  </defs>
  <text class="cls-2" transform="translate(0 8.57)"><tspan x="0" y="0">1. </tspan></text>
  <text class="cls-2" transform="translate(356.72 184.84)"><tspan x="0" y="0">1. </tspan></text>
  <text class="cls-2" transform="translate(.81 61.6)"><tspan x="0" y="0">2. </tspan></text>
  <text class="cls-2" transform="translate(1.92 105.03)"><tspan x="0" y="0">3.</tspan></text>
  <text class="cls-2" transform="translate(2.1 189.46)"><tspan x="0" y="0">A: </tspan></text>
  <path class="cls-16" d="M211.25,32.43c-49.94-.52-103.18,1.63-150.85,5.55-1.69.06-1.77-.9,0-2.37C99.36,6.64,158.33,2.39,211.25,2.47c52.92-.09,112.11,3.99,151.07,32.96,1.77,1.47,1.69,2.43,0,2.37-47.67-3.92-101.13-5.89-151.07-5.38"/>
  <g class="cls-23">
    <line class="cls-9" x1="59.1" y1="41.06" x2="363.62" y2="41.06"/>
    <line class="cls-9" x1="59.1" y1="37.98" x2="363.62" y2="37.98"/>
    <line class="cls-9" x1="59.1" y1="34.91" x2="363.62" y2="34.91"/>
    <line class="cls-9" x1="59.1" y1="31.84" x2="363.62" y2="31.84"/>
    <line class="cls-9" x1="59.1" y1="28.77" x2="363.62" y2="28.77"/>
    <line class="cls-9" x1="59.1" y1="25.69" x2="363.62" y2="25.69"/>
    <line class="cls-9" x1="59.1" y1="22.62" x2="363.62" y2="22.62"/>
    <line class="cls-9" x1="59.1" y1="19.55" x2="363.62" y2="19.55"/>
    <line class="cls-9" x1="59.1" y1="16.48" x2="363.62" y2="16.48"/>
    <line class="cls-9" x1="59.1" y1="13.4" x2="363.62" y2="13.4"/>
    <line class="cls-9" x1="59.1" y1="10.33" x2="363.62" y2="10.33"/>
    <line class="cls-9" x1="59.1" y1="7.26" x2="363.62" y2="7.26"/>
    <line class="cls-9" x1="59.1" y1="4.19" x2="363.62" y2="4.19"/>
    <line class="cls-12" x1="59.1" y1="50.27" x2="363.62" y2="50.27"/>
    <line class="cls-12" x1="59.1" y1="37.98" x2="363.62" y2="37.98"/>
    <line class="cls-12" x1="59.1" y1="25.69" x2="363.62" y2="25.69"/>
    <line class="cls-12" x1="59.1" y1="13.4" x2="363.62" y2="13.4"/>
    <line class="cls-9" x1="366.35" y1="37.98" x2="366.35" y2="2.47"/>
    <line class="cls-9" x1="363.27" y1="37.98" x2="363.27" y2="2.47"/>
    <line class="cls-9" x1="360.2" y1="37.98" x2="360.2" y2="2.47"/>
    <line class="cls-9" x1="357.13" y1="37.98" x2="357.13" y2="2.47"/>
    <line class="cls-9" x1="354.06" y1="37.98" x2="354.06" y2="2.47"/>
    <line class="cls-9" x1="350.98" y1="37.98" x2="350.98" y2="2.47"/>
    <line class="cls-9" x1="347.91" y1="37.98" x2="347.91" y2="2.47"/>
    <line class="cls-9" x1="344.84" y1="37.98" x2="344.84" y2="2.47"/>
    <line class="cls-9" x1="341.77" y1="37.98" x2="341.77" y2="2.47"/>
    <line class="cls-9" x1="338.69" y1="37.98" x2="338.69" y2="2.47"/>
    <line class="cls-9" x1="335.62" y1="37.98" x2="335.62" y2="2.47"/>
    <line class="cls-9" x1="332.55" y1="37.98" x2="332.55" y2="2.47"/>
    <line class="cls-9" x1="329.48" y1="37.98" x2="329.48" y2="2.47"/>
    <line class="cls-9" x1="326.4" y1="37.98" x2="326.4" y2="2.47"/>
    <line class="cls-9" x1="323.33" y1="37.98" x2="323.33" y2="2.47"/>
    <line class="cls-9" x1="320.26" y1="37.98" x2="320.26" y2="2.47"/>
    <line class="cls-9" x1="317.19" y1="37.98" x2="317.19" y2="2.47"/>
    <line class="cls-9" x1="314.11" y1="37.98" x2="314.11" y2="2.47"/>
    <line class="cls-9" x1="311.04" y1="37.98" x2="311.04" y2="2.47"/>
    <line class="cls-9" x1="307.97" y1="37.98" x2="307.97" y2="2.47"/>
    <line class="cls-9" x1="304.9" y1="37.98" x2="304.9" y2="2.47"/>
    <line class="cls-9" x1="301.82" y1="37.98" x2="301.82" y2="2.47"/>
    <line class="cls-9" x1="298.75" y1="37.98" x2="298.75" y2="2.47"/>
    <line class="cls-9" x1="295.68" y1="37.98" x2="295.68" y2="2.47"/>
    <line class="cls-9" x1="292.61" y1="37.98" x2="292.61" y2="2.47"/>
    <line class="cls-9" x1="289.53" y1="37.98" x2="289.53" y2="2.47"/>
    <line class="cls-9" x1="286.46" y1="37.98" x2="286.46" y2="2.47"/>
    <line class="cls-9" x1="283.39" y1="37.98" x2="283.39" y2="2.47"/>
    <line class="cls-9" x1="280.32" y1="37.98" x2="280.32" y2="2.47"/>
    <line class="cls-9" x1="277.24" y1="37.98" x2="277.24" y2="2.47"/>
    <line class="cls-9" x1="274.17" y1="37.98" x2="274.17" y2="2.47"/>
    <line class="cls-9" x1="271.1" y1="37.98" x2="271.1" y2="2.47"/>
    <line class="cls-9" x1="268.03" y1="37.98" x2="268.03" y2="2.47"/>
    <line class="cls-9" x1="264.95" y1="37.98" x2="264.95" y2="2.47"/>
    <line class="cls-9" x1="261.88" y1="37.98" x2="261.88" y2="2.47"/>
    <line class="cls-9" x1="258.81" y1="37.98" x2="258.81" y2="2.47"/>
    <line class="cls-9" x1="255.74" y1="37.98" x2="255.74" y2="2.47"/>
    <line class="cls-9" x1="252.67" y1="37.98" x2="252.67" y2="2.47"/>
    <line class="cls-9" x1="249.59" y1="37.98" x2="249.59" y2="2.47"/>
    <line class="cls-9" x1="246.52" y1="37.98" x2="246.52" y2="2.47"/>
    <line class="cls-9" x1="243.45" y1="37.98" x2="243.45" y2="2.47"/>
    <line class="cls-9" x1="240.38" y1="37.98" x2="240.38" y2="2.47"/>
    <line class="cls-9" x1="237.3" y1="37.98" x2="237.3" y2="2.47"/>
    <line class="cls-9" x1="234.23" y1="37.98" x2="234.23" y2="2.47"/>
    <line class="cls-9" x1="231.16" y1="37.98" x2="231.16" y2="2.47"/>
    <line class="cls-9" x1="228.09" y1="37.98" x2="228.09" y2="2.47"/>
    <line class="cls-9" x1="225.01" y1="37.98" x2="225.01" y2="2.47"/>
    <line class="cls-9" x1="221.94" y1="37.98" x2="221.94" y2="2.47"/>
    <line class="cls-9" x1="218.87" y1="37.98" x2="218.87" y2="2.47"/>
    <line class="cls-9" x1="215.8" y1="37.98" x2="215.8" y2="2.47"/>
    <line class="cls-9" x1="212.72" y1="37.98" x2="212.72" y2="2.47"/>
    <line class="cls-9" x1="209.65" y1="37.98" x2="209.65" y2="2.47"/>
    <line class="cls-9" x1="206.58" y1="37.98" x2="206.58" y2="2.47"/>
    <line class="cls-9" x1="203.51" y1="37.98" x2="203.51" y2="2.47"/>
    <line class="cls-9" x1="200.43" y1="37.98" x2="200.43" y2="2.47"/>
    <line class="cls-9" x1="197.36" y1="37.98" x2="197.36" y2="2.47"/>
    <line class="cls-9" x1="194.29" y1="37.98" x2="194.29" y2="2.47"/>
    <line class="cls-9" x1="191.22" y1="37.98" x2="191.22" y2="2.47"/>
    <line class="cls-9" x1="188.14" y1="37.98" x2="188.14" y2="2.47"/>
    <line class="cls-9" x1="185.07" y1="37.98" x2="185.07" y2="2.47"/>
    <line class="cls-9" x1="182" y1="37.98" x2="182" y2="2.47"/>
    <line class="cls-9" x1="178.93" y1="37.98" x2="178.93" y2="2.47"/>
    <line class="cls-9" x1="175.85" y1="37.98" x2="175.85" y2="2.47"/>
    <line class="cls-9" x1="172.78" y1="37.98" x2="172.78" y2="2.47"/>
    <line class="cls-9" x1="169.71" y1="37.98" x2="169.71" y2="2.47"/>
    <line class="cls-9" x1="166.64" y1="37.98" x2="166.64" y2="2.47"/>
    <line class="cls-9" x1="163.56" y1="37.98" x2="163.56" y2="2.47"/>
    <line class="cls-9" x1="160.49" y1="37.98" x2="160.49" y2="2.47"/>
    <line class="cls-9" x1="157.42" y1="37.98" x2="157.42" y2="2.47"/>
    <line class="cls-9" x1="154.35" y1="37.98" x2="154.35" y2="2.47"/>
    <line class="cls-9" x1="151.27" y1="37.98" x2="151.27" y2="2.47"/>
    <line class="cls-9" x1="148.2" y1="37.98" x2="148.2" y2="2.47"/>
    <line class="cls-9" x1="145.13" y1="37.98" x2="145.13" y2="2.47"/>
    <line class="cls-9" x1="142.06" y1="37.98" x2="142.06" y2="2.47"/>
    <line class="cls-9" x1="138.98" y1="37.98" x2="138.98" y2="2.47"/>
    <line class="cls-9" x1="135.91" y1="37.98" x2="135.91" y2="2.47"/>
    <line class="cls-9" x1="132.84" y1="37.98" x2="132.84" y2="2.47"/>
    <line class="cls-9" x1="129.77" y1="37.98" x2="129.77" y2="2.47"/>
    <line class="cls-9" x1="126.69" y1="37.98" x2="126.69" y2="2.47"/>
    <line class="cls-9" x1="123.62" y1="37.98" x2="123.62" y2="2.47"/>
    <line class="cls-9" x1="120.55" y1="37.98" x2="120.55" y2="2.47"/>
    <line class="cls-9" x1="117.48" y1="37.98" x2="117.48" y2="2.47"/>
    <line class="cls-9" x1="114.41" y1="37.98" x2="114.41" y2="2.47"/>
    <line class="cls-9" x1="111.33" y1="37.98" x2="111.33" y2="2.47"/>
    <line class="cls-9" x1="108.26" y1="37.98" x2="108.26" y2="2.47"/>
    <line class="cls-9" x1="105.19" y1="37.98" x2="105.19" y2="2.47"/>
    <line class="cls-9" x1="102.12" y1="37.98" x2="102.12" y2="2.47"/>
    <line class="cls-9" x1="99.04" y1="37.98" x2="99.04" y2="2.47"/>
    <line class="cls-9" x1="95.97" y1="37.98" x2="95.97" y2="2.47"/>
    <line class="cls-9" x1="92.9" y1="37.98" x2="92.9" y2="2.47"/>
    <line class="cls-9" x1="89.83" y1="37.98" x2="89.83" y2="2.47"/>
    <line class="cls-9" x1="86.75" y1="37.98" x2="86.75" y2="2.47"/>
    <line class="cls-9" x1="83.68" y1="37.98" x2="83.68" y2="2.47"/>
    <line class="cls-9" x1="80.61" y1="37.98" x2="80.61" y2="2.47"/>
    <line class="cls-9" x1="77.54" y1="37.98" x2="77.54" y2="2.47"/>
    <line class="cls-9" x1="74.46" y1="37.98" x2="74.46" y2="2.47"/>
    <line class="cls-9" x1="71.39" y1="37.98" x2="71.39" y2="2.47"/>
    <line class="cls-9" x1="68.32" y1="37.98" x2="68.32" y2="2.47"/>
    <line class="cls-9" x1="65.25" y1="37.98" x2="65.25" y2="2.47"/>
    <line class="cls-9" x1="62.17" y1="37.98" x2="62.17" y2="2.47"/>
    <line class="cls-9" x1="59.1" y1="37.98" x2="59.1" y2="2.47"/>
    <line class="cls-12" x1="366.35" y1="37.98" x2="366.35" y2="2.47"/>
    <line class="cls-12" x1="354.06" y1="37.98" x2="354.06" y2="2.47"/>
    <line class="cls-12" x1="341.77" y1="37.98" x2="341.77" y2="2.47"/>
    <line class="cls-12" x1="329.48" y1="37.98" x2="329.48" y2="2.47"/>
    <line class="cls-12" x1="317.19" y1="37.98" x2="317.19" y2="2.47"/>
    <line class="cls-12" x1="304.9" y1="37.98" x2="304.9" y2="2.47"/>
    <line class="cls-12" x1="292.61" y1="37.98" x2="292.61" y2="2.47"/>
    <line class="cls-12" x1="280.32" y1="37.98" x2="280.32" y2="2.47"/>
    <line class="cls-12" x1="268.03" y1="37.98" x2="268.03" y2="2.47"/>
    <line class="cls-12" x1="255.74" y1="37.98" x2="255.74" y2="2.47"/>
    <line class="cls-12" x1="243.45" y1="37.98" x2="243.45" y2="2.47"/>
    <line class="cls-12" x1="231.16" y1="37.98" x2="231.16" y2="2.47"/>
    <line class="cls-12" x1="218.87" y1="37.98" x2="218.87" y2="2.47"/>
    <line class="cls-12" x1="206.58" y1="37.98" x2="206.58" y2="2.47"/>
    <line class="cls-12" x1="194.29" y1="37.98" x2="194.29" y2="2.47"/>
    <line class="cls-12" x1="182" y1="37.98" x2="182" y2="2.47"/>
    <line class="cls-12" x1="169.71" y1="37.98" x2="169.71" y2="2.47"/>
    <line class="cls-12" x1="157.42" y1="37.98" x2="157.42" y2="2.47"/>
    <line class="cls-12" x1="145.13" y1="37.98" x2="145.13" y2="2.47"/>
    <line class="cls-12" x1="132.84" y1="37.98" x2="132.84" y2="2.47"/>
    <line class="cls-12" x1="120.55" y1="37.98" x2="120.55" y2="2.47"/>
    <line class="cls-12" x1="108.26" y1="37.98" x2="108.26" y2="2.47"/>
    <line class="cls-12" x1="95.97" y1="37.98" x2="95.97" y2="2.47"/>
    <line class="cls-12" x1="83.68" y1="37.98" x2="83.68" y2="2.47"/>
    <line class="cls-12" x1="71.39" y1="37.98" x2="71.39" y2="2.47"/>
    <line class="cls-12" x1="59.1" y1="37.98" x2="59.1" y2="2.47"/>
  </g>
  <path class="cls-5" d="M211.25,32.43c-49.94-.52-103.18,1.63-150.85,5.55-1.69.06-1.77-.9,0-2.37C99.36,6.64,158.33,2.39,211.25,2.47c52.92-.09,112.11,3.99,151.07,32.96,1.77,1.47,1.69,2.43,0,2.37-47.67-3.92-101.13-5.89-151.07-5.38Z"/>
  <path class="cls-16" d="M82.4,62.8h248.87c1.13,0,2.05.92,2.05,2.05h0c0,1.13-.92,2.05-2.05,2.05H82.4c-1.13,0-2.05-.92-2.05-2.05h0c0-1.13.92-2.05,2.05-2.05"/>
  <path class="cls-21" d="M82.4,62.38v.85h-.08s-.08,0-.08,0h-.08s-.08.02-.08.02l-.08.02-.08.02-.08.03-.07.03-.07.03-.07.04-.07.04-.07.04-.06.05-.06.05-.06.05-.06.05-.05.06-.05.06-.05.06-.05.06-.04.07-.04.07-.04.07-.03.07-.03.07-.03.08-.02.08-.02.08v.08s-.02.08-.02.08v.08s0,.08,0,.08h-.85v-.13s.01-.13.01-.13l.02-.12.02-.12.03-.12.03-.12.04-.12.04-.11.05-.11.05-.11.06-.1.06-.1.07-.1.07-.09.08-.09.08-.09.09-.08.09-.08.09-.07.1-.07.1-.06.1-.06.11-.06.11-.05.11-.04.12-.04.12-.03.12-.03.12-.02.12-.02h.13s.13-.01.13-.01ZM80.78,64.85h0s-.85,0-.85,0h0s.85,0,.85,0ZM79.93,64.85h.85v.08s0,.08,0,.08v.08s.02.08.02.08l.02.08.02.08.03.08.03.07.03.07.04.07.04.07.04.07.05.06.05.06.05.06.05.06.06.05.06.05.06.05.06.05.07.04.07.04.07.04.07.03.07.03.08.03.08.02.08.02h.08s.08.02.08.02h.08s.08,0,.08,0v.85h-.13s-.13-.01-.13-.01l-.12-.02-.12-.02-.12-.03-.12-.03-.12-.04-.11-.04-.11-.05-.11-.05-.1-.06-.1-.06-.1-.07-.09-.07-.09-.08-.09-.08-.08-.09-.08-.09-.07-.09-.07-.1-.06-.1-.06-.1-.05-.11-.05-.11-.04-.11-.04-.12-.03-.12-.03-.12-.02-.12-.02-.12v-.13s-.01-.13-.01-.13ZM82.4,66.47h248.87v.85H82.4v-.85ZM331.27,67.33v-.85h.08s.08,0,.08,0h.08s.08-.02.08-.02l.08-.02.08-.02.08-.03.07-.03.07-.03.07-.04.07-.04.07-.04.06-.05.06-.05.06-.05.06-.05.05-.06.05-.06.05-.06.05-.06.04-.07.04-.07.04-.07.03-.07.03-.07.03-.08.02-.08.02-.08v-.08s.02-.08.02-.08v-.08s0-.08,0-.08h.85v.13s-.01.13-.01.13l-.02.12-.02.12-.03.12-.03.12-.04.12-.04.11-.05.11-.05.11-.06.1-.06.1-.07.1-.07.09-.08.09-.08.09-.09.08-.09.08-.09.07-.1.07-.1.06-.1.06-.11.05-.11.05-.11.04-.12.04-.12.03-.12.03-.12.02-.12.02h-.13s-.13.01-.13.01ZM332.89,64.85h0s.85,0,.85,0h0s-.85,0-.85,0ZM333.75,64.85h-.85v-.08s0-.08,0-.08v-.08s-.02-.08-.02-.08l-.02-.08-.02-.08-.03-.08-.03-.07-.03-.07-.04-.07-.04-.07-.04-.07-.05-.06-.05-.06-.05-.06-.05-.06-.06-.05-.06-.05-.06-.05-.06-.05-.07-.04-.07-.04-.07-.04-.07-.03-.07-.03-.08-.03-.08-.02-.08-.02h-.08s-.08-.02-.08-.02h-.08s-.08,0-.08,0v-.85h.13s.13.01.13.01l.12.02.12.02.12.03.12.03.12.04.11.04.11.05.11.06.1.06.1.06.1.07.09.07.09.08.09.08.08.09.08.09.07.09.07.1.06.1.06.1.05.11.05.11.04.11.04.12.03.12.03.12.02.12.02.12v.13s.01.13.01.13ZM331.27,63.23H82.4v-.85h248.87v.85Z"/>
  <polygon class="cls-14" points="269.82 145.88 269.82 145.88 276.32 121.83 269.82 121.83 269.82 145.88"/>
  <path class="cls-21" d="M269.61,145.88h.43,0s0,.02,0,.02h0s0,.02,0,.02h0s0,.02,0,.02h0s0,.02,0,.02h0s0,.02,0,.02h0s0,.02,0,.02h0s0,.02,0,.02h0s0,.02,0,.02h0s0,.01,0,.01h0s0,.01,0,.01h0s0,.01,0,.01h0s0,0,0,0h0s0,0,0,0h-.01s-.01,0-.01,0h-.01s-.01,0-.01,0h-.01s-.01,0-.01,0h-.01s-.01,0-.01,0h-.01s-.01,0-.01,0h-.01s-.01,0-.01,0h0s0,0,0,0h0s0,0,0,0h0s0-.01,0-.01h0s0-.01,0-.01h0s0-.01,0-.01h0s0-.02,0-.02h0s0-.02,0-.02h0s0-.02,0-.02h0s0-.02,0-.02h0s0-.02,0-.02h0s0-.02,0-.02h0s0-.02,0-.02h0s0-.02,0-.02ZM269.61,145.88v-24.05h.43v24.1s-.43-.06-.43-.06ZM269.82,121.61v.43h-.01s-.01,0-.01,0h-.01s-.01,0-.01,0h-.01s-.01,0-.01,0h0s0,0,0,0h0s0,0,0,0h0s0-.01,0-.01h0s0-.01,0-.01h0s0-.01,0-.01h0s0-.02,0-.02h0s0-.02,0-.02h0s0-.02,0-.02h0s0-.02,0-.02h0s0-.02,0-.02h0s0-.02,0-.02h0s0-.02,0-.02h0s0-.02,0-.02h0s0-.02,0-.02h0s0-.02,0-.02h0s0-.02,0-.02h0s0-.02,0-.02h0s0-.02,0-.02h0s0-.02,0-.02h0s0-.02,0-.02h0s0-.02,0-.02h0s0-.01,0-.01h0s0-.01,0-.01h0s0-.01,0-.01h0s0,0,0,0h0s0,0,0,0h.01s.01,0,.01,0h.01s.01,0,.01,0h.01s.01,0,.01,0ZM269.82,121.61h6.5v.43h-6.5l-.21-.21.21-.21ZM276.52,121.88l-.41-.11h0s0-.02,0-.02h0s0-.02,0-.02h0s0-.02,0-.02h0s0-.02,0-.02h0s0-.02,0-.02h0s0-.01,0-.01h0s0-.01,0-.01h0s0-.01,0-.01h0s0,0,0,0h0s0,0,0,0h.01s0,0,0,0h.01s.01,0,.01,0h.01s.01,0,.01,0h.01s.01,0,.01,0h.01s.01,0,.01,0h.01s.01,0,.01,0h.01s.01,0,.01,0h0s0,0,0,0h0s0,.01,0,.01h0s0,.01,0,.01h0s0,.01,0,.01h0s0,.01,0,.01h0s0,.02,0,.02h0s0,.02,0,.02h0s0,.02,0,.02h0s0,.02,0,.02h0s0,.02,0,.02h0s0,.02,0,.02h0s0,.02,0,.02h0s0,.02,0,.02h0s0,.02,0,.02h0s0,.02,0,.02ZM276.52,121.88l-6.5,24.05-.41-.11,6.5-24.05.21-.16.21.27ZM269.61,145.88h.43,0s0,.02,0,.02h0s0,.02,0,.02h0s0,.02,0,.02h0s0,.02,0,.02h0s0,.02,0,.02h0s0,.02,0,.02h0s0,.02,0,.02h0s0,.02,0,.02h0s0,.01,0,.01h0s0,.01,0,.01h0s0,.01,0,.01h0s0,0,0,0h0s0,0,0,0h-.01s-.01,0-.01,0h-.01s-.01,0-.01,0h-.01s-.01,0-.01,0h-.01s-.01,0-.01,0h-.01s-.01,0-.01,0h-.01s-.01,0-.01,0h0s0,0,0,0h0s0,0,0,0h0s0-.01,0-.01h0s0-.01,0-.01h0s0-.01,0-.01h0s0-.02,0-.02h0s0-.02,0-.02h0s0-.02,0-.02h0s0-.02,0-.02h0s0-.02,0-.02h0s0-.02,0-.02h0s0-.02,0-.02h0s0-.02,0-.02ZM269.82,145.88h0l-.21-.06.21.06Z"/>
  <polygon class="cls-14" points="269.82 96.09 269.82 96.09 276.32 120.13 269.82 120.13 269.82 96.09"/>
  <path class="cls-21" d="M270.04,96.09h-.43,0s0-.02,0-.02h0s0-.02,0-.02h0s0-.02,0-.02h0s0-.02,0-.02h0s0-.02,0-.02h0s0-.02,0-.02h0s0-.02,0-.02h0s0-.02,0-.02h0s0-.01,0-.01h0s0-.01,0-.01h0s0-.01,0-.01h0s0,0,0,0h0s0,0,0,0h.01s.01,0,.01,0h.01s.01,0,.01,0h.01s.01,0,.01,0h.01s.01,0,.01,0h.01s.01,0,.01,0h.01s.01,0,.01,0h0s0,0,0,0h0s0,0,0,0h0s0,.01,0,.01h0s0,.01,0,.01h0s0,.01,0,.01h0s0,.02,0,.02h0s0,.02,0,.02h0s0,.02,0,.02h0s0,.02,0,.02h0s0,.02,0,.02h0s0,.02,0,.02h0s0,.02,0,.02h0s0,.02,0,.02ZM270.04,96.09v24.05h-.43v-24.05l.42-.06v.06ZM269.82,119.92v.43h-.01s-.01,0-.01,0h-.01s-.01,0-.01,0h-.01s-.01,0-.01,0h0s0,0,0,0h0s0,0,0,0h0s0-.01,0-.01h0s0-.01,0-.01h0s0-.01,0-.01h0s0-.02,0-.02h0s0-.02,0-.02h0s0-.02,0-.02h0s0-.02,0-.02h0s0-.02,0-.02h0s0-.02,0-.02h0s0-.02,0-.02h0s0-.02,0-.02h0s0-.02,0-.02h0s0-.02,0-.02h0s0-.02,0-.02h0s0-.02,0-.02h0s0-.02,0-.02h0s0-.02,0-.02h0s0-.02,0-.02h0s0-.02,0-.02h0s0-.01,0-.01h0s0-.01,0-.01h0s0-.01,0-.01h0s0,0,0,0h0s0,0,0,0h.01s.01,0,.01,0h.01s.01,0,.01,0h.01s.01,0,.01,0ZM269.82,119.92h6.5v.43h-6.5l-.21-.21.21-.21ZM276.11,120.19l.41-.11h0s0,.02,0,.02h0s0,.02,0,.02h0s0,.02,0,.02h0s0,.02,0,.02h0s0,.02,0,.02h0s0,.02,0,.02h0s0,.02,0,.02h0s0,.02,0,.02h0s0,.02,0,.02h0s0,.02,0,.02h0s0,.01,0,.01h0s0,.01,0,.01h0s0,.01,0,.01h0s0,.01,0,.01h0s0,0,0,0h-.01s-.01,0-.01,0h-.01s-.01,0-.01,0h-.01s-.01,0-.01,0h-.01s-.01,0-.01,0h-.01s-.01,0-.01,0h-.01s-.01,0-.01,0h0s-.01,0-.01,0h0s0,0,0,0h0s0,0,0,0h0s0-.01,0-.01h0s0-.01,0-.01h0s0-.01,0-.01h0s0-.02,0-.02h0s0-.02,0-.02h0s0-.02,0-.02h0s0-.02,0-.02h0s0-.02,0-.02ZM276.11,120.19l-6.5-24.05.41-.11,6.5,24.05-.21.27-.21-.16ZM270.04,96.09h-.43,0s0-.02,0-.02h0s0-.02,0-.02h0s0-.02,0-.02h0s0-.02,0-.02h0s0-.02,0-.02h0s0-.02,0-.02h0s0-.02,0-.02h0s0-.02,0-.02h0s0-.01,0-.01h0s0-.01,0-.01h0s0-.01,0-.01h0s0,0,0,0h0s0,0,0,0h.01s.01,0,.01,0h.01s.01,0,.01,0h.01s.01,0,.01,0h.01s.01,0,.01,0h.01s.01,0,.01,0h.01s.01,0,.01,0h0s0,0,0,0h0s0,0,0,0h0s0,.01,0,.01h0s0,.01,0,.01h0s0,.01,0,.01h0s0,.02,0,.02h0s0,.02,0,.02h0s0,.02,0,.02h0s0,.02,0,.02h0s0,.02,0,.02h0s0,.02,0,.02h0s0,.02,0,.02h0s0,.02,0,.02ZM269.82,96.09h0l.21-.06-.21.06Z"/>
  <polygon class="cls-15" points="137.71 96.09 269.82 96.09 269.82 145.76 137.71 145.76 137.73 137.1 140.3 135.2 134.66 134.22 140.2 131.89 134.69 130.65 137.78 128.73 137.85 116.05 135.04 114.39 140.93 112.47 134.17 110.69 142.32 109.02 137.71 108.38 137.71 96.09"/>
  <path class="cls-21" d="M138.13,96.09h-.85v-.02s0-.02,0-.02v-.02s0-.02,0-.02v-.02s.01-.02.01-.02v-.02s.01-.02.01-.02v-.02s.02-.02.02-.02v-.02s.02-.02.02-.02v-.02s.02-.02.02-.02v-.02s.03-.01.03-.01h.01s.02-.03.02-.03h.02s.02-.02.02-.02h.02s.02-.02.02-.02h.02s.02-.02.02-.02h.02s.02-.01.02-.01h.02s.02-.01.02-.01h.02s.02,0,.02,0h.02s.02,0,.02,0h.02s.02,0,.02,0h.02s.02,0,.02,0h.02s.02.01.02.01h.02s.02.01.02.01h.02s.02.02.02.02h.02s.02.02.02.02h.02s.02.02.02.02h.02s.01.03.01.03h.01s.01.03.01.03v.02s.02.02.02.02v.02s.02.02.02.02v.02s.02.02.02.02v.02s.01.02.01.02v.02s.01.02.01.02v.02s0,.02,0,.02v.02s0,.02,0,.02ZM138.13,96.09v12.29h-.85v-12.29l.43-.43.43.43ZM137.77,107.95l-.12.85h-.02s-.02,0-.02,0h-.02s-.02-.01-.02-.01h-.02s-.02-.02-.02-.02h-.02s-.02-.02-.02-.02h-.02s-.02-.02-.02-.02h-.02s-.02-.03-.02-.03h-.02s-.01-.03-.01-.03v-.02s-.03-.02-.03-.02v-.02s-.02-.02-.02-.02v-.02s-.02-.02-.02-.02v-.02s-.02-.02-.02-.02v-.02s-.01-.02-.01-.02v-.02s0-.02,0-.02v-.02s0-.02,0-.02v-.02s0-.02,0-.02v-.02s0-.02,0-.02v-.02s0-.02,0-.02v-.02s.01-.02.01-.02v-.02s.02-.02.02-.02v-.02s.02-.02.02-.02v-.02s.02-.02.02-.02v-.02s.03-.02.03-.02v-.02s.03-.01.03-.01h.02s.02-.03.02-.03h.02s.02-.02.02-.02h.02s.02-.02.02-.02h.02s.02-.02.02-.02h.02s.02-.01.02-.01h.02s.02,0,.02,0h.02s.02,0,.02,0h.02s.02,0,.02,0h.02s.02,0,.02,0ZM137.77,107.95l4.61.64-.12.85-4.61-.64-.37-.42.49-.42ZM142.4,109.43l-.17-.84h.02s.02,0,.02,0h.02s.02,0,.02,0h.02s.02,0,.02,0h.02s.02,0,.02,0h.02s.02.01.02.01h.02s.02.01.02.01h.02s.02.02.02.02h.02s.02.02.02.02h.02s.02.02.02.02h.02s.02.03.02.03h.01s.01.03.01.03v.02s.03.02.03.02v.02s.02.02.02.02v.02s.02.02.02.02v.02s.01.02.01.02v.02s.01.02.01.02v.02s0,.02,0,.02v.02s0,.02,0,.02v.02s0,.02,0,.02v.02s0,.02,0,.02v.02s-.01.02-.01.02v.02s-.01.02-.01.02v.02s-.02.02-.02.02v.02s-.02.02-.02.02v.02s-.02.02-.02.02v.02s-.03.02-.03.02h-.01s-.02.03-.02.03h-.02s-.02.03-.02.03h-.02s-.02.02-.02.02h-.02s-.02.02-.02.02h-.02s-.02.01-.02.01h-.02s-.02.01-.02.01ZM142.4,109.43l-8.15,1.67-.17-.84,8.15-1.67h.14s.03.84.03.84ZM134.28,110.27l-.22.82h-.02s-.02-.01-.02-.01h-.02s-.02-.02-.02-.02h-.02s-.02-.02-.02-.02h-.02s-.02-.02-.02-.02h-.02s-.02-.03-.02-.03h-.01s-.01-.03-.01-.03v-.02s-.03-.02-.03-.02v-.02s-.02-.02-.02-.02v-.02s-.02-.02-.02-.02v-.02s-.02-.02-.02-.02v-.02s-.01-.02-.01-.02v-.02s0-.02,0-.02v-.02s0-.02,0-.02v-.02s0-.02,0-.02v-.02s0-.02,0-.02v-.02s0-.02,0-.02v-.02s.01-.02.01-.02v-.02s.02-.02.02-.02v-.02s.02-.02.02-.02v-.02s.02-.02.02-.02v-.02s.03-.02.03-.02h.01s.02-.03.02-.03h.02s.02-.03.02-.03h.02s.02-.02.02-.02h.02s.02-.02.02-.02h.02s.02-.02.02-.02h.02s.02-.01.02-.01h.02s.02,0,.02,0h.02s.02,0,.02,0h.02s.02,0,.02,0h.02s.02,0,.02,0h.02s.02,0,.02,0ZM134.28,110.27l6.76,1.79-.22.83-6.76-1.79.02-.83h.19ZM141.06,112.88l-.26-.81h.02s.02-.01.02-.01h.02s.02,0,.02,0h.02s.02,0,.02,0h.02s.02,0,.02,0h.02s.02,0,.02,0h.02s.02,0,.02,0h.02s.02.01.02.01h.02s.02.02.02.02h.02s.02.02.02.02h.02s.02.02.02.02h.02s.02.03.02.03h.01s.01.03.01.03v.02s.03.02.03.02v.02s.02.02.02.02v.02s.02.02.02.02v.02s.02.02.02.02v.02s.01.02.01.02v.02s0,.02,0,.02v.02s0,.02,0,.02v.02s0,.02,0,.02v.02s0,.02,0,.02v.02s0,.02,0,.02v.02s-.01.02-.01.02v.02s-.02.02-.02.02v.02s-.02.02-.02.02v.02s-.02.02-.02.02v.02s-.03.02-.03.02h-.01s-.02.03-.02.03h-.02s-.02.03-.02.03h-.02s-.02.02-.02.02h-.02s-.02.02-.02.02h-.02s-.02.02-.02.02ZM141.06,112.88l-5.89,1.92-.26-.81,5.89-1.92h.24s.02.81.02.81ZM135.25,114.02l-.43.73h-.02s-.02-.02-.02-.02h-.02s-.02-.03-.02-.03h-.02s-.01-.03-.01-.03v-.02s-.03-.02-.03-.02v-.02s-.02-.02-.02-.02v-.02s-.02-.02-.02-.02v-.02s-.02-.02-.02-.02v-.02s-.01-.02-.01-.02v-.02s0-.02,0-.02v-.02s0-.02,0-.02v-.02s0-.02,0-.02v-.02s0-.02,0-.02v-.02s0-.02,0-.02v-.02s.01-.02.01-.02v-.02s.02-.02.02-.02v-.02s.02-.02.02-.02v-.02s.02-.02.02-.02v-.02s.03-.02.03-.02v-.02s.03-.01.03-.01h.02s.02-.03.02-.03h.02s.02-.02.02-.02h.02s.02-.02.02-.02h.02s.02-.02.02-.02h.02s.02-.01.02-.01h.02s.02,0,.02,0h.02s.02,0,.02,0h.02s.02,0,.02,0h.02s.02,0,.02,0h.02s.02,0,.02,0h.02s.02.01.02.01h.02s.02.02.02.02h.02s.02.02.02.02ZM135.25,114.02l2.82,1.66-.43.73-2.82-1.66.09-.77.35.04ZM138.28,116.05h-.85s0-.03,0-.03v-.02s0-.02,0-.02v-.02s0-.02,0-.02v-.02s.01-.02.01-.02v-.02s.02-.02.02-.02v-.02s.02-.02.02-.02v-.02s.02-.02.02-.02v-.02s.03-.02.03-.02h.01s.02-.03.02-.03h.02s.02-.03.02-.03h.02s.02-.02.02-.02h.02s.02-.02.02-.02h.02s.02-.02.02-.02h.02s.02-.01.02-.01h.02s.02,0,.02,0h.02s.02,0,.02,0h.02s.02,0,.02,0h.02s.02,0,.02,0h.02s.02,0,.02,0h.02s.02.01.02.01h.02s.02.02.02.02h.02s.02.02.02.02h.02s.02.02.02.02h.02s.02.03.02.03h.01s.01.03.01.03v.02s.03.02.03.02v.02s.02.02.02.02v.02s.02.02.02.02v.02s.02.02.02.02v.02s.01.02.01.02v.02s0,.02,0,.02v.02s0,.02,0,.02v.02ZM138.28,116.05l-.07,12.68h-.85s.07-12.68.07-12.68l.64-.36.21.37ZM138,129.09l-.45-.72h.02s.02-.02.02-.02h.02s.02-.02.02-.02h.02s.02-.01.02-.01h.02s.02,0,.02,0h.02s.02,0,.02,0h.02s.02,0,.02,0h.02s.02,0,.02,0h.02s.02,0,.02,0h.02s.02.01.02.01h.02s.02.02.02.02h.02s.02.02.02.02h.02s.02.02.02.02h.02s.02.03.02.03h.02s.02.03.02.03v.02s.03.02.03.02v.02s.02.02.02.02v.02s.02.02.02.02v.02s.02.02.02.02v.02s.01.02.01.02v.02s0,.02,0,.02v.02s0,.02,0,.02v.02s0,.02,0,.02v.02s0,.02,0,.02v.02s0,.02,0,.02v.02s-.01.02-.01.02v.02s-.02.02-.02.02v.02s-.02.02-.02.02v.02s-.02.02-.02.02v.02s-.03.02-.03.02v.02s-.03.01-.03.01h-.02s-.02.03-.02.03h-.02s-.02.02-.02.02ZM138,129.09l-3.08,1.92-.45-.72,3.08-1.92.65.36-.2.36ZM134.79,130.23l-.19.83h-.02s-.02-.01-.02-.01h-.02s-.02-.02-.02-.02h-.02s-.02-.02-.02-.02h-.02s-.02-.02-.02-.02h-.02s-.02-.03-.02-.03h-.02s-.01-.03-.01-.03v-.02s-.03-.02-.03-.02v-.02s-.02-.02-.02-.02v-.02s-.02-.02-.02-.02v-.02s-.02-.02-.02-.02v-.02s-.01-.02-.01-.02v-.02s0-.02,0-.02v-.02s0-.02,0-.02v-.02s0-.02,0-.02v-.02s0-.02,0-.02v-.02s0-.02,0-.02v-.02s.01-.02.01-.02v-.02s.02-.02.02-.02v-.02s.02-.02.02-.02v-.02s.02-.02.02-.02v-.02s.03-.02.03-.02v-.02s.03-.01.03-.01h.02s.02-.03.02-.03h.02s.02-.02.02-.02h.02s.02-.02.02-.02h.02s.02-.02.02-.02h.02s.02-.01.02-.01h.02s.02,0,.02,0h.02s.02,0,.02,0h.02s.02,0,.02,0h.02s.02,0,.02,0h.02s.02,0,.02,0ZM134.79,130.23l5.5,1.24-.19.83-5.5-1.24-.13-.78.32-.05ZM140.36,132.29l-.33-.79h.02s.02-.01.02-.01h.02s.02-.01.02-.01h.02s.02,0,.02,0h.02s.02,0,.02,0h.02s.02,0,.02,0h.02s.02,0,.02,0h.02s.02,0,.02,0h.02s.02.01.02.01h.02s.02.02.02.02h.02s.02.02.02.02h.02s.02.02.02.02h.02s.02.03.02.03h.01s.01.03.01.03v.02s.03.02.03.02v.02s.02.02.02.02v.02s.02.02.02.02v.02s.01.02.01.02v.02s.01.02.01.02v.02s0,.02,0,.02v.02s0,.02,0,.02v.02s0,.02,0,.02v.02s0,.02,0,.02v.02s0,.02,0,.02v.02s-.01.02-.01.02v.02s-.02.02-.02.02v.02s-.02.02-.02.02v.02s-.02.02-.02.02v.02s-.03.02-.03.02h-.01s-.02.03-.02.03h-.02s-.02.03-.02.03h-.02s-.02.02-.02.02h-.02s-.02.02-.02.02ZM140.36,132.29l-5.54,2.32-.33-.79,5.54-2.32.26-.02.07.81ZM134.73,133.8l-.15.84h-.02s-.02,0-.02,0h-.02s-.02-.01-.02-.01h-.02s-.02-.02-.02-.02h-.02s-.02-.02-.02-.02h-.02s-.02-.02-.02-.02h-.02s-.01-.03-.01-.03h-.01s-.01-.03-.01-.03v-.02s-.03-.02-.03-.02v-.02s-.02-.02-.02-.02v-.02s-.02-.02-.02-.02v-.02s-.02-.02-.02-.02v-.02s-.01-.02-.01-.02v-.02s0-.02,0-.02v-.02s0-.02,0-.02v-.04s0-.02,0-.02v-.02s0-.02,0-.02v-.02s.01-.02.01-.02v-.02s.02-.02.02-.02v-.02s.02-.02.02-.02v-.02s.02-.02.02-.02v-.02s.03-.02.03-.02v-.02s.03-.01.03-.01h.02s.02-.03.02-.03h.02s.02-.02.02-.02h.02s.02-.02.02-.02h.02s.02-.02.02-.02h.02s.02-.01.02-.01h.02s.02,0,.02,0h.02s.02,0,.02,0h.02s.02,0,.02,0h.02s.02,0,.02,0h.02ZM134.73,133.8l5.65.98-.15.84-5.65-.98-.09-.81.24-.03ZM140.56,135.55l-.51-.69h.02s.02-.02.02-.02h.02s.02-.02.02-.02h.02s.02-.02.02-.02h.02s.02-.01.02-.01h.02s.02,0,.02,0h.02s.02,0,.02,0h.02s.02,0,.02,0h.02s.02,0,.02,0h.02s.02,0,.02,0h.02s.02.01.02.01h.02s.02.02.02.02h.02s.02.02.02.02h.02s.02.02.02.02h.02s.02.03.02.03h.02s.01.03.01.03v.02s.03.02.03.02v.02s.02.02.02.02v.02s.02.02.02.02v.02s.02.02.02.02v.02s.01.02.01.02v.02s0,.02,0,.02v.02s0,.02,0,.02v.02s0,.02,0,.02v.02s0,.02,0,.02v.02s0,.02,0,.02v.02s-.01.02-.01.02v.02s-.02.02-.02.02v.02s-.02.02-.02.02v.02s-.02.02-.02.02v.02s-.03.02-.03.02v.02s-.03.01-.03.01h-.02s-.02.03-.02.03ZM140.56,135.55l-2.58,1.89-.51-.69,2.58-1.89.33-.08.18.76ZM138.15,137.1h-.85s0-.02,0-.02v-.02s0-.02,0-.02v-.02s0-.02,0-.02v-.02s.01-.02.01-.02v-.02s.02-.02.02-.02v-.02s.02-.02.02-.02v-.02s.02-.02.02-.02v-.02s.03-.02.03-.02h.01s.02-.03.02-.03h.02s.02-.03.02-.03h.02s.02-.02.02-.02h.02s.02-.02.02-.02h.02s.02-.02.02-.02h.02s.02-.01.02-.01h.02s.02,0,.02,0h.02s.02,0,.02,0h.02s.02,0,.02,0h.02s.02,0,.02,0h.02s.02,0,.02,0h.02s.02.01.02.01h.02s.02.02.02.02h.02s.02.02.02.02h.02s.02.02.02.02h.02s.02.03.02.03h.01s.01.03.01.03v.02s.03.02.03.02v.02s.02.02.02.02v.02s.02.02.02.02v.02s.02.02.02.02v.02s.01.02.01.02v.02s0,.02,0,.02v.02s0,.02,0,.02v.02ZM138.15,137.1l-.02,8.66h-.85s.02-8.66.02-8.66l.17-.34.68.34ZM137.71,145.33v.85h-.02s-.02,0-.02,0h-.02s-.02,0-.02,0h-.02s-.02-.01-.02-.01h-.02s-.02-.01-.02-.01h-.02s-.02-.02-.02-.02h-.02s-.02-.02-.02-.02h-.02s-.02-.02-.02-.02h-.02s-.01-.03-.01-.03h-.01s-.01-.03-.01-.03v-.02s-.02-.02-.02-.02v-.02s-.02-.02-.02-.02v-.02s-.02-.02-.02-.02v-.02s-.01-.02-.01-.02v-.02s-.01-.02-.01-.02v-.02s0-.02,0-.02v-.02s0-.02,0-.02v-.02s0-.02,0-.02v-.02s0-.02,0-.02v-.02s.01-.02.01-.02v-.02s.01-.02.01-.02v-.02s.02-.02.02-.02v-.02s.02-.02.02-.02v-.02s.02-.02.02-.02v-.02s.03-.01.03-.01h.01s.02-.03.02-.03h.02s.02-.02.02-.02h.02s.02-.02.02-.02h.02s.02-.02.02-.02h.02s.02-.01.02-.01h.02s.02-.01.02-.01h.02s.02,0,.02,0h.02s.02,0,.02,0ZM137.71,145.33h132.12v.85h-132.12l-.43-.43.43-.43ZM269.4,145.76h.85v.02s0,.02,0,.02v.02s0,.02,0,.02v.02s-.01.02-.01.02v.02s-.01.02-.01.02v.02s-.02.02-.02.02v.02s-.02.02-.02.02v.02s-.02.02-.02.02v.02s-.03.01-.03.01h-.01s-.02.03-.02.03h-.02s-.02.02-.02.02h-.02s-.02.02-.02.02h-.02s-.02.02-.02.02h-.02s-.02.01-.02.01h-.02s-.02.01-.02.01h-.02s-.02,0-.02,0h-.02s-.02,0-.02,0h-.02s-.02,0-.02,0h-.02s-.02,0-.02,0h-.02s-.02-.01-.02-.01h-.02s-.02-.01-.02-.01h-.02s-.02-.02-.02-.02h-.02s-.02-.02-.02-.02h-.02s-.02-.02-.02-.02h-.02s-.01-.03-.01-.03h-.01s-.01-.03-.01-.03v-.02s-.02-.02-.02-.02v-.02s-.02-.02-.02-.02v-.02s-.02-.02-.02-.02v-.02s-.01-.02-.01-.02v-.02s-.01-.02-.01-.02v-.02s0-.02,0-.02v-.02s0-.02,0-.02ZM269.4,145.76v-49.67h.85v49.67l-.43.43-.43-.43ZM269.82,96.51v-.85h.02s.02,0,.02,0h.02s.02,0,.02,0h.02s.02.01.02.01h.02s.02.01.02.01h.02s.02.02.02.02h.02s.02.02.02.02h.02s.02.02.02.02h.02s.01.03.01.03h.01s.01.03.01.03v.02s.02.02.02.02v.02s.02.02.02.02v.02s.02.02.02.02v.02s.01.02.01.02v.02s.01.02.01.02v.02s0,.02,0,.02v.02s0,.02,0,.02v.02s0,.02,0,.02v.02s0,.02,0,.02v.02s-.01.02-.01.02v.02s-.01.02-.01.02v.02s-.02.02-.02.02v.02s-.02.02-.02.02v.02s-.02.02-.02.02v.02s-.03.01-.03.01h-.01s-.02.03-.02.03h-.02s-.02.02-.02.02h-.02s-.02.02-.02.02h-.02s-.02.02-.02.02h-.02s-.02.01-.02.01h-.02s-.02.01-.02.01h-.02s-.02,0-.02,0h-.02s-.02,0-.02,0ZM269.82,96.51h-132.12v-.85h132.12l.43.43-.43.43Z"/>
  <line class="cls-5" x1="275.23" y1="95.35" x2="313.12" y2="95.35"/>
  <line class="cls-5" x1="275.23" y1="146.05" x2="313.12" y2="146.05"/>
  <text class="cls-2" transform="translate(287.86 125.11)"><tspan x="0" y="0">20 mm</tspan></text>
  <path class="cls-21" d="M298.22,89.47l-2.25,4.09-2.25-4.09h4.5ZM295.75,89.82v-9.07h.43v9.07h-.43Z"/>
  <path class="cls-21" d="M293.72,151.67l2.25-4.09,2.25,4.09h-4.5ZM296.18,151.32v9.07h-.43v-9.07h.43Z"/>
  <path class="cls-16" d="M211.25,206.66c-49.94-.52-103.18,1.63-150.85,5.55-1.69.06-1.77-.9,0-2.37,38.96-28.97,97.93-33.23,150.85-33.14,52.92-.09,112.11,3.99,151.07,32.96,1.77,1.47,1.69,2.43,0,2.37-47.67-3.92-101.13-5.89-151.07-5.38"/>
  <g class="cls-19">
    <line class="cls-9" x1="59.1" y1="215.29" x2="363.62" y2="215.29"/>
    <line class="cls-9" x1="59.1" y1="212.21" x2="363.62" y2="212.21"/>
    <line class="cls-9" x1="59.1" y1="209.14" x2="363.62" y2="209.14"/>
    <line class="cls-9" x1="59.1" y1="206.07" x2="363.62" y2="206.07"/>
    <line class="cls-9" x1="59.1" y1="203" x2="363.62" y2="203"/>
    <line class="cls-9" x1="59.1" y1="199.93" x2="363.62" y2="199.93"/>
    <line class="cls-9" x1="59.1" y1="196.85" x2="363.62" y2="196.85"/>
    <line class="cls-9" x1="59.1" y1="193.78" x2="363.62" y2="193.78"/>
    <line class="cls-9" x1="59.1" y1="190.71" x2="363.62" y2="190.71"/>
    <line class="cls-9" x1="59.1" y1="187.64" x2="363.62" y2="187.64"/>
    <line class="cls-9" x1="59.1" y1="184.56" x2="363.62" y2="184.56"/>
    <line class="cls-9" x1="59.1" y1="181.49" x2="363.62" y2="181.49"/>
    <line class="cls-9" x1="59.1" y1="178.42" x2="363.62" y2="178.42"/>
    <line class="cls-12" x1="59.1" y1="224.5" x2="363.62" y2="224.5"/>
    <line class="cls-12" x1="59.1" y1="212.21" x2="363.62" y2="212.21"/>
    <line class="cls-12" x1="59.1" y1="199.93" x2="363.62" y2="199.93"/>
    <line class="cls-12" x1="59.1" y1="187.64" x2="363.62" y2="187.64"/>
    <line class="cls-9" x1="366.35" y1="212.21" x2="366.35" y2="176.7"/>
    <line class="cls-9" x1="363.27" y1="212.21" x2="363.27" y2="176.7"/>
    <line class="cls-9" x1="360.2" y1="212.21" x2="360.2" y2="176.7"/>
    <line class="cls-9" x1="357.13" y1="212.21" x2="357.13" y2="176.7"/>
    <line class="cls-9" x1="354.06" y1="212.21" x2="354.06" y2="176.7"/>
    <line class="cls-9" x1="350.98" y1="212.21" x2="350.98" y2="176.7"/>
    <line class="cls-9" x1="347.91" y1="212.21" x2="347.91" y2="176.7"/>
    <line class="cls-9" x1="344.84" y1="212.21" x2="344.84" y2="176.7"/>
    <line class="cls-9" x1="341.77" y1="212.21" x2="341.77" y2="176.7"/>
    <line class="cls-9" x1="338.69" y1="212.21" x2="338.69" y2="176.7"/>
    <line class="cls-9" x1="335.62" y1="212.21" x2="335.62" y2="176.7"/>
    <line class="cls-9" x1="332.55" y1="212.21" x2="332.55" y2="176.7"/>
    <line class="cls-9" x1="329.48" y1="212.21" x2="329.48" y2="176.7"/>
    <line class="cls-9" x1="326.4" y1="212.21" x2="326.4" y2="176.7"/>
    <line class="cls-9" x1="323.33" y1="212.21" x2="323.33" y2="176.7"/>
    <line class="cls-9" x1="320.26" y1="212.21" x2="320.26" y2="176.7"/>
    <line class="cls-9" x1="317.19" y1="212.21" x2="317.19" y2="176.7"/>
    <line class="cls-9" x1="314.11" y1="212.21" x2="314.11" y2="176.7"/>
    <line class="cls-9" x1="311.04" y1="212.21" x2="311.04" y2="176.7"/>
    <line class="cls-9" x1="307.97" y1="212.21" x2="307.97" y2="176.7"/>
    <line class="cls-9" x1="304.9" y1="212.21" x2="304.9" y2="176.7"/>
    <line class="cls-9" x1="301.82" y1="212.21" x2="301.82" y2="176.7"/>
    <line class="cls-9" x1="298.75" y1="212.21" x2="298.75" y2="176.7"/>
    <line class="cls-9" x1="295.68" y1="212.21" x2="295.68" y2="176.7"/>
    <line class="cls-9" x1="292.61" y1="212.21" x2="292.61" y2="176.7"/>
    <line class="cls-9" x1="289.53" y1="212.21" x2="289.53" y2="176.7"/>
    <line class="cls-9" x1="286.46" y1="212.21" x2="286.46" y2="176.7"/>
    <line class="cls-9" x1="283.39" y1="212.21" x2="283.39" y2="176.7"/>
    <line class="cls-9" x1="280.32" y1="212.21" x2="280.32" y2="176.7"/>
    <line class="cls-9" x1="277.24" y1="212.21" x2="277.24" y2="176.7"/>
    <line class="cls-9" x1="274.17" y1="212.21" x2="274.17" y2="176.7"/>
    <line class="cls-9" x1="271.1" y1="212.21" x2="271.1" y2="176.7"/>
    <line class="cls-9" x1="268.03" y1="212.21" x2="268.03" y2="176.7"/>
    <line class="cls-9" x1="264.95" y1="212.21" x2="264.95" y2="176.7"/>
    <line class="cls-9" x1="261.88" y1="212.21" x2="261.88" y2="176.7"/>
    <line class="cls-9" x1="258.81" y1="212.21" x2="258.81" y2="176.7"/>
    <line class="cls-9" x1="255.74" y1="212.21" x2="255.74" y2="176.7"/>
    <line class="cls-9" x1="252.67" y1="212.21" x2="252.67" y2="176.7"/>
    <line class="cls-9" x1="249.59" y1="212.21" x2="249.59" y2="176.7"/>
    <line class="cls-9" x1="246.52" y1="212.21" x2="246.52" y2="176.7"/>
    <line class="cls-9" x1="243.45" y1="212.21" x2="243.45" y2="176.7"/>
    <line class="cls-9" x1="240.38" y1="212.21" x2="240.38" y2="176.7"/>
    <line class="cls-9" x1="237.3" y1="212.21" x2="237.3" y2="176.7"/>
    <line class="cls-9" x1="234.23" y1="212.21" x2="234.23" y2="176.7"/>
    <line class="cls-9" x1="231.16" y1="212.21" x2="231.16" y2="176.7"/>
    <line class="cls-9" x1="228.09" y1="212.21" x2="228.09" y2="176.7"/>
    <line class="cls-9" x1="225.01" y1="212.21" x2="225.01" y2="176.7"/>
    <line class="cls-9" x1="221.94" y1="212.21" x2="221.94" y2="176.7"/>
    <line class="cls-9" x1="218.87" y1="212.21" x2="218.87" y2="176.7"/>
    <line class="cls-9" x1="215.8" y1="212.21" x2="215.8" y2="176.7"/>
    <line class="cls-9" x1="212.72" y1="212.21" x2="212.72" y2="176.7"/>
    <line class="cls-9" x1="209.65" y1="212.21" x2="209.65" y2="176.7"/>
    <line class="cls-9" x1="206.58" y1="212.21" x2="206.58" y2="176.7"/>
    <line class="cls-9" x1="203.51" y1="212.21" x2="203.51" y2="176.7"/>
    <line class="cls-9" x1="200.43" y1="212.21" x2="200.43" y2="176.7"/>
    <line class="cls-9" x1="197.36" y1="212.21" x2="197.36" y2="176.7"/>
    <line class="cls-9" x1="194.29" y1="212.21" x2="194.29" y2="176.7"/>
    <line class="cls-9" x1="191.22" y1="212.21" x2="191.22" y2="176.7"/>
    <line class="cls-9" x1="188.14" y1="212.21" x2="188.14" y2="176.7"/>
    <line class="cls-9" x1="185.07" y1="212.21" x2="185.07" y2="176.7"/>
    <line class="cls-9" x1="182" y1="212.21" x2="182" y2="176.7"/>
    <line class="cls-9" x1="178.93" y1="212.21" x2="178.93" y2="176.7"/>
    <line class="cls-9" x1="175.85" y1="212.21" x2="175.85" y2="176.7"/>
    <line class="cls-9" x1="172.78" y1="212.21" x2="172.78" y2="176.7"/>
    <line class="cls-9" x1="169.71" y1="212.21" x2="169.71" y2="176.7"/>
    <line class="cls-9" x1="166.64" y1="212.21" x2="166.64" y2="176.7"/>
    <line class="cls-9" x1="163.56" y1="212.21" x2="163.56" y2="176.7"/>
    <line class="cls-9" x1="160.49" y1="212.21" x2="160.49" y2="176.7"/>
    <line class="cls-9" x1="157.42" y1="212.21" x2="157.42" y2="176.7"/>
    <line class="cls-9" x1="154.35" y1="212.21" x2="154.35" y2="176.7"/>
    <line class="cls-9" x1="151.27" y1="212.21" x2="151.27" y2="176.7"/>
    <line class="cls-9" x1="148.2" y1="212.21" x2="148.2" y2="176.7"/>
    <line class="cls-9" x1="145.13" y1="212.21" x2="145.13" y2="176.7"/>
    <line class="cls-9" x1="142.06" y1="212.21" x2="142.06" y2="176.7"/>
    <line class="cls-9" x1="138.98" y1="212.21" x2="138.98" y2="176.7"/>
    <line class="cls-9" x1="135.91" y1="212.21" x2="135.91" y2="176.7"/>
    <line class="cls-9" x1="132.84" y1="212.21" x2="132.84" y2="176.7"/>
    <line class="cls-9" x1="129.77" y1="212.21" x2="129.77" y2="176.7"/>
    <line class="cls-9" x1="126.69" y1="212.21" x2="126.69" y2="176.7"/>
    <line class="cls-9" x1="123.62" y1="212.21" x2="123.62" y2="176.7"/>
    <line class="cls-9" x1="120.55" y1="212.21" x2="120.55" y2="176.7"/>
    <line class="cls-9" x1="117.48" y1="212.21" x2="117.48" y2="176.7"/>
    <line class="cls-9" x1="114.41" y1="212.21" x2="114.41" y2="176.7"/>
    <line class="cls-9" x1="111.33" y1="212.21" x2="111.33" y2="176.7"/>
    <line class="cls-9" x1="108.26" y1="212.21" x2="108.26" y2="176.7"/>
    <line class="cls-9" x1="105.19" y1="212.21" x2="105.19" y2="176.7"/>
    <line class="cls-9" x1="102.12" y1="212.21" x2="102.12" y2="176.7"/>
    <line class="cls-9" x1="99.04" y1="212.21" x2="99.04" y2="176.7"/>
    <line class="cls-9" x1="95.97" y1="212.21" x2="95.97" y2="176.7"/>
    <line class="cls-9" x1="92.9" y1="212.21" x2="92.9" y2="176.7"/>
    <line class="cls-9" x1="89.83" y1="212.21" x2="89.83" y2="176.7"/>
    <line class="cls-9" x1="86.75" y1="212.21" x2="86.75" y2="176.7"/>
    <line class="cls-9" x1="83.68" y1="212.21" x2="83.68" y2="176.7"/>
    <line class="cls-9" x1="80.61" y1="212.21" x2="80.61" y2="176.7"/>
    <line class="cls-9" x1="77.54" y1="212.21" x2="77.54" y2="176.7"/>
    <line class="cls-9" x1="74.46" y1="212.21" x2="74.46" y2="176.7"/>
    <line class="cls-9" x1="71.39" y1="212.21" x2="71.39" y2="176.7"/>
    <line class="cls-9" x1="68.32" y1="212.21" x2="68.32" y2="176.7"/>
    <line class="cls-9" x1="65.25" y1="212.21" x2="65.25" y2="176.7"/>
    <line class="cls-9" x1="62.17" y1="212.21" x2="62.17" y2="176.7"/>
    <line class="cls-9" x1="59.1" y1="212.21" x2="59.1" y2="176.7"/>
    <line class="cls-12" x1="366.35" y1="212.21" x2="366.35" y2="176.7"/>
    <line class="cls-12" x1="354.06" y1="212.21" x2="354.06" y2="176.7"/>
    <line class="cls-12" x1="341.77" y1="212.21" x2="341.77" y2="176.7"/>
    <line class="cls-12" x1="329.48" y1="212.21" x2="329.48" y2="176.7"/>
    <line class="cls-12" x1="317.19" y1="212.21" x2="317.19" y2="176.7"/>
    <line class="cls-12" x1="304.9" y1="212.21" x2="304.9" y2="176.7"/>
    <line class="cls-12" x1="292.61" y1="212.21" x2="292.61" y2="176.7"/>
    <line class="cls-12" x1="280.32" y1="212.21" x2="280.32" y2="176.7"/>
    <line class="cls-12" x1="268.03" y1="212.21" x2="268.03" y2="176.7"/>
    <line class="cls-12" x1="255.74" y1="212.21" x2="255.74" y2="176.7"/>
    <line class="cls-12" x1="243.45" y1="212.21" x2="243.45" y2="176.7"/>
    <line class="cls-12" x1="231.16" y1="212.21" x2="231.16" y2="176.7"/>
    <line class="cls-12" x1="218.87" y1="212.21" x2="218.87" y2="176.7"/>
    <line class="cls-12" x1="206.58" y1="212.21" x2="206.58" y2="176.7"/>
    <line class="cls-12" x1="194.29" y1="212.21" x2="194.29" y2="176.7"/>
    <line class="cls-12" x1="182" y1="212.21" x2="182" y2="176.7"/>
    <line class="cls-12" x1="169.71" y1="212.21" x2="169.71" y2="176.7"/>
    <line class="cls-12" x1="157.42" y1="212.21" x2="157.42" y2="176.7"/>
    <line class="cls-12" x1="145.13" y1="212.21" x2="145.13" y2="176.7"/>
    <line class="cls-12" x1="132.84" y1="212.21" x2="132.84" y2="176.7"/>
    <line class="cls-12" x1="120.55" y1="212.21" x2="120.55" y2="176.7"/>
    <line class="cls-12" x1="108.26" y1="212.21" x2="108.26" y2="176.7"/>
    <line class="cls-12" x1="95.97" y1="212.21" x2="95.97" y2="176.7"/>
    <line class="cls-12" x1="83.68" y1="212.21" x2="83.68" y2="176.7"/>
    <line class="cls-12" x1="71.39" y1="212.21" x2="71.39" y2="176.7"/>
    <line class="cls-12" x1="59.1" y1="212.21" x2="59.1" y2="176.7"/>
  </g>
  <path class="cls-5" d="M211.25,206.66c-49.94-.52-103.18,1.63-150.85,5.55-1.69.06-1.77-.9,0-2.37,38.96-28.97,97.93-33.23,150.85-33.14,52.92-.09,112.11,3.99,151.07,32.96,1.77,1.47,1.69,2.43,0,2.37-47.67-3.92-101.13-5.89-151.07-5.38Z"/>
  <path class="cls-17" d="M88.76,199.91c82.79-5.17,165.57-5.08,248.36,0v10.27c-82.51-5.28-165.3-5.28-248.36-.05v-10.23Z"/>
  <path class="cls-21" d="M88.98,199.91h-.43,0s0-.02,0-.02h0s0-.02,0-.02h0s0-.02,0-.02h0s0-.02,0-.02h0s0-.02,0-.02h0s0-.02,0-.02h0s0-.02,0-.02h0s0-.02,0-.02h0s0-.01,0-.01h0s0-.01,0-.01h0s0-.01,0-.01h0s0,0,0,0h0s0,0,0,0h.01s.01,0,.01,0h.01s.01,0,.01,0h.01s.01,0,.01,0h.01s.01,0,.01,0h.01s.01,0,.01,0h.01s.01,0,.01,0h0s0,0,0,0h0s0,0,0,0h0s0,.01,0,.01h0s0,.01,0,.01h0s0,.01,0,.01h0s0,.02,0,.02h0s0,.02,0,.02h0s0,.02,0,.02h0s0,.02,0,.02h0s0,.02,0,.02h0s0,.02,0,.02h0s0,.02,0,.02h0s0,.02,0,.02ZM88.98,199.91v10.23h-.43v-10.23l.2-.21.23.21ZM88.75,209.92l.03.43h-.01s-.01,0-.01,0h-.01s-.01,0-.01,0h-.01s-.01,0-.01,0h-.01s0,0,0,0h0s0,0,0,0h0s0,0,0,0h0s0-.01,0-.01h0s0-.01,0-.01h0s0-.01,0-.01h0s0-.02,0-.02h0s0-.02,0-.02h0s0-.02,0-.02h0s0-.02,0-.02h0s0-.02,0-.02h0s0-.02,0-.02h0s0-.02,0-.02h0s0-.02,0-.02h0s0-.02,0-.02h0s0-.02,0-.02h0s0-.02,0-.02h0s0-.02,0-.02h0s0-.02,0-.02h0s0-.02,0-.02h0s0-.02,0-.02h0s0-.01,0-.01h0s0-.01,0-.01h0s0-.01,0-.01h0s0-.01,0-.01h0s0,0,0,0h0s.01,0,.01,0h.01s.01,0,.01,0h.01s.01,0,.01,0ZM88.55,210.13h.43l-.23-.21,7.79-.48,7.79-.44,7.78-.41,7.78-.38,7.78-.35,7.78-.32,7.78-.29,7.78-.26,7.77-.23,7.77-.2,7.77-.17,7.77-.14,7.77-.11,7.77-.08,7.76-.04h7.76s7.76,0,7.76,0l7.76.05,7.76.08,7.76.11,7.75.14,7.75.17,7.75.2,7.75.23,7.75.26,7.75.29,7.75.32,7.74.36,7.74.39,7.74.42,7.74.45,7.74.48-.03.43-7.74-.48-7.74-.45-7.74-.42-7.74-.39-7.74-.36-7.74-.32-7.75-.29-7.75-.26-7.75-.23-7.75-.2-7.75-.17-7.75-.14-7.75-.11-7.76-.08-7.76-.05-7.76-.02h-7.76s-7.76.06-7.76.06l-7.76.08-7.77.11-7.77.14-7.77.17-7.77.2-7.77.23-7.77.26-7.78.29-7.78.32-7.78.35-7.78.38-7.78.41-7.78.44-7.79.48-.23-.21ZM336.91,210.18h.43,0s0,.02,0,.02h0s0,.02,0,.02h0s0,.02,0,.02h0s0,.02,0,.02h0s0,.02,0,.02h0s0,.02,0,.02h0s0,.02,0,.02h0s0,.02,0,.02h0s0,.01,0,.01h0s0,.01,0,.01h0s0,.01,0,.01h0s0,0,0,0h0s0,0,0,0h-.01s-.01,0-.01,0h-.01s-.01,0-.01,0h-.01s-.01,0-.01,0h-.01s-.01,0-.01,0h-.01s-.01,0-.01,0h-.01s-.01,0-.01,0h-.01s0,0,0,0h0s0,0,0,0h0s0-.01,0-.01h0s0-.01,0-.01h0s0-.01,0-.01h0s0-.02,0-.02h0s0-.02,0-.02h0s0-.02,0-.02h0s0-.02,0-.02h0s0-.02,0-.02h0s0-.02,0-.02h0s0-.02,0-.02h0s0-.02,0-.02ZM336.91,210.18v-10.27h.43v10.27l-.23.21-.2-.21ZM337.11,200.12l.03-.43h.01s.01,0,.01,0h.01s.01,0,.01,0h.01s.01,0,.01,0h0s0,0,0,0h0s0,.01,0,.01h0s0,.01,0,.01h0s0,.01,0,.01h0s0,.01,0,.01h0s0,.02,0,.02h0s0,.02,0,.02h0s0,.02,0,.02h0s0,.02,0,.02h0s0,.02,0,.02h0s0,.02,0,.02h0s0,.02,0,.02h0s0,.02,0,.02h0s0,.02,0,.02h0s0,.02,0,.02h0s0,.02,0,.02h0s0,.02,0,.02h0s0,.02,0,.02h0s0,.02,0,.02h0s0,.02,0,.02h0s0,.01,0,.01h0s0,.01,0,.01h0s0,.01,0,.01h0s0,0,0,0h0s0,0,0,0h0s-.01,0-.01,0h-.01s-.01,0-.01,0h-.01s-.01,0-.01,0h-.01s-.01,0-.01,0ZM337.33,199.91h-.43l.2.21-7.76-.46-7.76-.43-7.76-.4-7.76-.37-7.76-.34-7.76-.31-7.76-.28-7.76-.26-7.76-.23-7.76-.2-7.76-.17-7.76-.14-7.76-.11-7.76-.08-7.76-.05-7.76-.02h-7.76s-7.76.06-7.76.06l-7.76.07-7.76.1-7.76.13-7.76.16-7.76.19-7.76.22-7.76.25-7.76.29-7.76.32-7.76.35-7.76.38-7.76.41-7.76.44-7.76.47-.03-.43,7.76-.47,7.76-.44,7.76-.41,7.76-.38,7.76-.35,7.76-.32,7.76-.29,7.76-.25,7.76-.22,7.76-.19,7.76-.16,7.76-.13,7.76-.1,7.76-.07,7.76-.04h7.76s7.76,0,7.76,0l7.76.05,7.76.08,7.76.11,7.76.14,7.76.17,7.76.2,7.76.23,7.76.26,7.76.28,7.76.31,7.76.34,7.76.37,7.76.4,7.76.43,7.76.46.2.21Z"/>
  <path class="cls-4" d="M88.76,199.91l1.55,6.23c83.51-5.24,163.04-5.04,245.13.02l1.68-6.24"/>
  <path class="cls-8" d="M90.38,205.31c83.51-5.24,163.04-5.04,245.13.02"/>
  <path class="cls-16" d="M93.56,200.79c79.9-4.66,159.61-4.83,237.81-.31,1.12.06,2.04.92,2.04,2.04h0c0,1.12-1.31,1.73-2.43,1.66-78.92-4.89-157.45-5.8-236.36.02-1.12.08-2.15-.13-2.49-.68-.74-1.2-.03-2.65,1.43-2.73"/>
  <text class="cls-2" transform="translate(221.54 241.22)"><tspan x="0" y="0">A</tspan></text>
  <path class="cls-21" d="M221.45,207.91l2.27-4.08,2.23,4.1-4.5-.02ZM223.91,207.57l-.12,22.89h-.43s.12-22.9.12-22.9h.43Z"/>
  <path class="cls-21" d="M324.26,200.75l-4.66-.26,2.71-3.8,1.94,4.06ZM322.87,198.68l28.64-13.73.18.38-28.64,13.73-.18-.38Z"/>
  <path class="cls-21" d="M357.64,214.45l4.09,2.25-4.09,2.25v-4.5ZM357.99,216.91h-17.11v-.43h17.11v.43ZM341.23,214.45v4.5l-4.09-2.25,4.09-2.25Z"/>
  <path class="cls-21" d="M82.52,214.45l4.09,2.25-4.09,2.25v-4.5ZM82.87,216.91h-17.11v-.43h17.11v.43ZM66.11,214.45v4.5l-4.09-2.25,4.09-2.25Z"/>
  <rect class="cls-18" x="53.32" y="226.61" width="126.99" height="99.34"/>
  <g class="cls-22">
    <path class="cls-16" d="M332.07,275.63c-89.16-.92-184.21,2.91-269.33,9.91-3.02.1-3.16-1.6,0-4.23,69.56-51.73,174.84-59.32,269.33-59.17,94.49-.15,200.16,7.12,269.72,58.85,3.16,2.63,3.02,4.33,0,4.23-85.11-7-180.55-10.52-269.72-9.6"/>
    <g class="cls-20">
      <line class="cls-9" x1="60.43" y1="288.62" x2="604.11" y2="288.62"/>
      <line class="cls-9" x1="60.43" y1="285.55" x2="604.11" y2="285.55"/>
      <line class="cls-9" x1="60.43" y1="282.48" x2="604.11" y2="282.48"/>
      <line class="cls-9" x1="60.43" y1="279.4" x2="604.11" y2="279.4"/>
      <line class="cls-9" x1="60.43" y1="276.33" x2="604.11" y2="276.33"/>
      <line class="cls-9" x1="60.43" y1="273.26" x2="604.11" y2="273.26"/>
      <line class="cls-9" x1="60.43" y1="270.19" x2="604.11" y2="270.19"/>
      <line class="cls-9" x1="60.43" y1="267.11" x2="604.11" y2="267.11"/>
      <line class="cls-9" x1="60.43" y1="264.04" x2="604.11" y2="264.04"/>
      <line class="cls-9" x1="60.43" y1="260.97" x2="604.11" y2="260.97"/>
      <line class="cls-9" x1="60.43" y1="257.9" x2="604.11" y2="257.9"/>
      <line class="cls-9" x1="60.43" y1="254.82" x2="604.11" y2="254.82"/>
      <line class="cls-9" x1="60.43" y1="251.75" x2="604.11" y2="251.75"/>
      <line class="cls-9" x1="60.43" y1="248.68" x2="604.11" y2="248.68"/>
      <line class="cls-9" x1="60.43" y1="245.61" x2="604.11" y2="245.61"/>
      <line class="cls-9" x1="60.43" y1="242.53" x2="604.11" y2="242.53"/>
      <line class="cls-9" x1="60.43" y1="239.46" x2="604.11" y2="239.46"/>
      <line class="cls-9" x1="60.43" y1="236.39" x2="604.11" y2="236.39"/>
      <line class="cls-9" x1="60.43" y1="233.32" x2="604.11" y2="233.32"/>
      <line class="cls-9" x1="60.43" y1="230.24" x2="604.11" y2="230.24"/>
      <line class="cls-9" x1="60.43" y1="227.17" x2="604.11" y2="227.17"/>
      <line class="cls-9" x1="60.43" y1="224.1" x2="604.11" y2="224.1"/>
      <line class="cls-12" x1="60.43" y1="297.84" x2="604.11" y2="297.84"/>
      <line class="cls-12" x1="60.43" y1="285.55" x2="604.11" y2="285.55"/>
      <line class="cls-12" x1="60.43" y1="273.26" x2="604.11" y2="273.26"/>
      <line class="cls-12" x1="60.43" y1="260.97" x2="604.11" y2="260.97"/>
      <line class="cls-12" x1="60.43" y1="248.68" x2="604.11" y2="248.68"/>
      <line class="cls-12" x1="60.43" y1="236.39" x2="604.11" y2="236.39"/>
      <line class="cls-12" x1="60.43" y1="224.1" x2="604.11" y2="224.1"/>
      <line class="cls-9" x1="376.89" y1="285.55" x2="376.89" y2="222.14"/>
      <line class="cls-9" x1="373.82" y1="285.55" x2="373.82" y2="222.14"/>
      <line class="cls-9" x1="370.75" y1="285.55" x2="370.75" y2="222.14"/>
      <line class="cls-9" x1="367.68" y1="285.55" x2="367.68" y2="222.14"/>
      <line class="cls-9" x1="364.6" y1="285.55" x2="364.6" y2="222.14"/>
      <line class="cls-9" x1="361.53" y1="285.55" x2="361.53" y2="222.14"/>
      <line class="cls-9" x1="358.46" y1="285.55" x2="358.46" y2="222.14"/>
      <line class="cls-9" x1="355.39" y1="285.55" x2="355.39" y2="222.14"/>
      <line class="cls-9" x1="352.31" y1="285.55" x2="352.31" y2="222.14"/>
      <line class="cls-9" x1="349.24" y1="285.55" x2="349.24" y2="222.14"/>
      <line class="cls-9" x1="346.17" y1="285.55" x2="346.17" y2="222.14"/>
      <line class="cls-9" x1="343.1" y1="285.55" x2="343.1" y2="222.14"/>
      <line class="cls-9" x1="340.03" y1="285.55" x2="340.03" y2="222.14"/>
      <line class="cls-9" x1="336.95" y1="285.55" x2="336.95" y2="222.14"/>
      <line class="cls-9" x1="333.88" y1="285.55" x2="333.88" y2="222.14"/>
      <line class="cls-9" x1="330.81" y1="285.55" x2="330.81" y2="222.14"/>
      <line class="cls-9" x1="327.74" y1="285.55" x2="327.74" y2="222.14"/>
      <line class="cls-9" x1="324.66" y1="285.55" x2="324.66" y2="222.14"/>
      <line class="cls-9" x1="321.59" y1="285.55" x2="321.59" y2="222.14"/>
      <line class="cls-9" x1="318.52" y1="285.55" x2="318.52" y2="222.14"/>
      <line class="cls-9" x1="315.45" y1="285.55" x2="315.45" y2="222.14"/>
      <line class="cls-9" x1="312.37" y1="285.55" x2="312.37" y2="222.14"/>
      <line class="cls-9" x1="309.3" y1="285.55" x2="309.3" y2="222.14"/>
      <line class="cls-9" x1="306.23" y1="285.55" x2="306.23" y2="222.14"/>
      <line class="cls-9" x1="303.16" y1="285.55" x2="303.16" y2="222.14"/>
      <line class="cls-9" x1="300.08" y1="285.55" x2="300.08" y2="222.14"/>
      <line class="cls-9" x1="297.01" y1="285.55" x2="297.01" y2="222.14"/>
      <line class="cls-9" x1="293.94" y1="285.55" x2="293.94" y2="222.14"/>
      <line class="cls-9" x1="290.87" y1="285.55" x2="290.87" y2="222.14"/>
      <line class="cls-9" x1="287.79" y1="285.55" x2="287.79" y2="222.14"/>
      <line class="cls-9" x1="284.72" y1="285.55" x2="284.72" y2="222.14"/>
      <line class="cls-9" x1="281.65" y1="285.55" x2="281.65" y2="222.14"/>
      <line class="cls-9" x1="278.58" y1="285.55" x2="278.58" y2="222.14"/>
      <line class="cls-9" x1="275.5" y1="285.55" x2="275.5" y2="222.14"/>
      <line class="cls-9" x1="272.43" y1="285.55" x2="272.43" y2="222.14"/>
      <line class="cls-9" x1="269.36" y1="285.55" x2="269.36" y2="222.14"/>
      <line class="cls-9" x1="266.29" y1="285.55" x2="266.29" y2="222.14"/>
      <line class="cls-9" x1="263.21" y1="285.55" x2="263.21" y2="222.14"/>
      <line class="cls-9" x1="260.14" y1="285.55" x2="260.14" y2="222.14"/>
      <line class="cls-9" x1="257.07" y1="285.55" x2="257.07" y2="222.14"/>
      <line class="cls-9" x1="254" y1="285.55" x2="254" y2="222.14"/>
      <line class="cls-9" x1="250.92" y1="285.55" x2="250.92" y2="222.14"/>
      <line class="cls-9" x1="247.85" y1="285.55" x2="247.85" y2="222.14"/>
      <line class="cls-9" x1="244.78" y1="285.55" x2="244.78" y2="222.14"/>
      <line class="cls-9" x1="241.71" y1="285.55" x2="241.71" y2="222.14"/>
      <line class="cls-9" x1="238.63" y1="285.55" x2="238.63" y2="222.14"/>
      <line class="cls-9" x1="235.56" y1="285.55" x2="235.56" y2="222.14"/>
      <line class="cls-9" x1="232.49" y1="285.55" x2="232.49" y2="222.14"/>
      <line class="cls-9" x1="229.42" y1="285.55" x2="229.42" y2="222.14"/>
      <line class="cls-9" x1="226.34" y1="285.55" x2="226.34" y2="222.14"/>
      <line class="cls-9" x1="223.27" y1="285.55" x2="223.27" y2="222.14"/>
      <line class="cls-9" x1="220.2" y1="285.55" x2="220.2" y2="222.14"/>
      <line class="cls-9" x1="217.13" y1="285.55" x2="217.13" y2="222.14"/>
      <line class="cls-9" x1="214.05" y1="285.55" x2="214.05" y2="222.14"/>
      <line class="cls-9" x1="210.98" y1="285.55" x2="210.98" y2="222.14"/>
      <line class="cls-9" x1="207.91" y1="285.55" x2="207.91" y2="222.14"/>
      <line class="cls-9" x1="204.84" y1="285.55" x2="204.84" y2="222.14"/>
      <line class="cls-9" x1="201.77" y1="285.55" x2="201.77" y2="222.14"/>
      <line class="cls-9" x1="198.69" y1="285.55" x2="198.69" y2="222.14"/>
      <line class="cls-9" x1="195.62" y1="285.55" x2="195.62" y2="222.14"/>
      <line class="cls-9" x1="192.55" y1="285.55" x2="192.55" y2="222.14"/>
      <line class="cls-9" x1="189.48" y1="285.55" x2="189.48" y2="222.14"/>
      <line class="cls-9" x1="186.4" y1="285.55" x2="186.4" y2="222.14"/>
      <line class="cls-9" x1="183.33" y1="285.55" x2="183.33" y2="222.14"/>
      <line class="cls-9" x1="180.26" y1="285.55" x2="180.26" y2="222.14"/>
      <line class="cls-9" x1="177.19" y1="285.55" x2="177.19" y2="222.14"/>
      <line class="cls-9" x1="174.11" y1="285.55" x2="174.11" y2="222.14"/>
      <line class="cls-9" x1="171.04" y1="285.55" x2="171.04" y2="222.14"/>
      <line class="cls-9" x1="167.97" y1="285.55" x2="167.97" y2="222.14"/>
      <line class="cls-9" x1="164.9" y1="285.55" x2="164.9" y2="222.14"/>
      <line class="cls-9" x1="161.82" y1="285.55" x2="161.82" y2="222.14"/>
      <line class="cls-9" x1="158.75" y1="285.55" x2="158.75" y2="222.14"/>
      <line class="cls-9" x1="155.68" y1="285.55" x2="155.68" y2="222.14"/>
      <line class="cls-9" x1="152.61" y1="285.55" x2="152.61" y2="222.14"/>
      <line class="cls-9" x1="149.53" y1="285.55" x2="149.53" y2="222.14"/>
      <line class="cls-9" x1="146.46" y1="285.55" x2="146.46" y2="222.14"/>
      <line class="cls-9" x1="143.39" y1="285.55" x2="143.39" y2="222.14"/>
      <line class="cls-9" x1="140.32" y1="285.55" x2="140.32" y2="222.14"/>
      <line class="cls-9" x1="137.24" y1="285.55" x2="137.24" y2="222.14"/>
      <line class="cls-9" x1="134.17" y1="285.55" x2="134.17" y2="222.14"/>
      <line class="cls-9" x1="131.1" y1="285.55" x2="131.1" y2="222.14"/>
      <line class="cls-9" x1="128.03" y1="285.55" x2="128.03" y2="222.14"/>
      <line class="cls-9" x1="124.95" y1="285.55" x2="124.95" y2="222.14"/>
      <line class="cls-9" x1="121.88" y1="285.55" x2="121.88" y2="222.14"/>
      <line class="cls-9" x1="118.81" y1="285.55" x2="118.81" y2="222.14"/>
      <line class="cls-9" x1="115.74" y1="285.55" x2="115.74" y2="222.14"/>
      <line class="cls-9" x1="112.66" y1="285.55" x2="112.66" y2="222.14"/>
      <line class="cls-9" x1="109.59" y1="285.55" x2="109.59" y2="222.14"/>
      <line class="cls-9" x1="106.52" y1="285.55" x2="106.52" y2="222.14"/>
      <line class="cls-9" x1="103.45" y1="285.55" x2="103.45" y2="222.14"/>
      <line class="cls-9" x1="100.37" y1="285.55" x2="100.37" y2="222.14"/>
      <line class="cls-9" x1="97.3" y1="285.55" x2="97.3" y2="222.14"/>
      <line class="cls-9" x1="94.23" y1="285.55" x2="94.23" y2="222.14"/>
      <line class="cls-9" x1="91.16" y1="285.55" x2="91.16" y2="222.14"/>
      <line class="cls-9" x1="88.08" y1="285.55" x2="88.08" y2="222.14"/>
      <line class="cls-9" x1="85.01" y1="285.55" x2="85.01" y2="222.14"/>
      <line class="cls-9" x1="81.94" y1="285.55" x2="81.94" y2="222.14"/>
      <line class="cls-9" x1="78.87" y1="285.55" x2="78.87" y2="222.14"/>
      <line class="cls-9" x1="75.79" y1="285.55" x2="75.79" y2="222.14"/>
      <line class="cls-9" x1="72.72" y1="285.55" x2="72.72" y2="222.14"/>
      <line class="cls-9" x1="69.65" y1="285.55" x2="69.65" y2="222.14"/>
      <line class="cls-9" x1="66.58" y1="285.55" x2="66.58" y2="222.14"/>
      <line class="cls-9" x1="63.51" y1="285.55" x2="63.51" y2="222.14"/>
      <line class="cls-9" x1="60.43" y1="285.55" x2="60.43" y2="222.14"/>
      <line class="cls-12" x1="367.68" y1="285.55" x2="367.68" y2="222.14"/>
      <line class="cls-12" x1="355.39" y1="285.55" x2="355.39" y2="222.14"/>
      <line class="cls-12" x1="343.1" y1="285.55" x2="343.1" y2="222.14"/>
      <line class="cls-12" x1="330.81" y1="285.55" x2="330.81" y2="222.14"/>
      <line class="cls-12" x1="318.52" y1="285.55" x2="318.52" y2="222.14"/>
      <line class="cls-12" x1="306.23" y1="285.55" x2="306.23" y2="222.14"/>
      <line class="cls-12" x1="293.94" y1="285.55" x2="293.94" y2="222.14"/>
      <line class="cls-12" x1="281.65" y1="285.55" x2="281.65" y2="222.14"/>
      <line class="cls-12" x1="269.36" y1="285.55" x2="269.36" y2="222.14"/>
      <line class="cls-12" x1="257.07" y1="285.55" x2="257.07" y2="222.14"/>
      <line class="cls-12" x1="244.78" y1="285.55" x2="244.78" y2="222.14"/>
      <line class="cls-12" x1="232.49" y1="285.55" x2="232.49" y2="222.14"/>
      <line class="cls-12" x1="220.2" y1="285.55" x2="220.2" y2="222.14"/>
      <line class="cls-12" x1="207.91" y1="285.55" x2="207.91" y2="222.14"/>
      <line class="cls-12" x1="195.62" y1="285.55" x2="195.62" y2="222.14"/>
      <line class="cls-12" x1="183.33" y1="285.55" x2="183.33" y2="222.14"/>
      <line class="cls-12" x1="171.04" y1="285.55" x2="171.04" y2="222.14"/>
      <line class="cls-12" x1="158.75" y1="285.55" x2="158.75" y2="222.14"/>
      <line class="cls-12" x1="146.46" y1="285.55" x2="146.46" y2="222.14"/>
      <line class="cls-12" x1="134.17" y1="285.55" x2="134.17" y2="222.14"/>
      <line class="cls-12" x1="121.88" y1="285.55" x2="121.88" y2="222.14"/>
      <line class="cls-12" x1="109.59" y1="285.55" x2="109.59" y2="222.14"/>
      <line class="cls-12" x1="97.3" y1="285.55" x2="97.3" y2="222.14"/>
      <line class="cls-12" x1="85.01" y1="285.55" x2="85.01" y2="222.14"/>
      <line class="cls-12" x1="72.72" y1="285.55" x2="72.72" y2="222.14"/>
      <line class="cls-12" x1="60.43" y1="285.55" x2="60.43" y2="222.14"/>
    </g>
    <path class="cls-5" d="M332.07,275.63c-89.16-.92-184.21,2.91-269.33,9.91-3.02.1-3.16-1.6,0-4.23,69.56-51.73,174.84-59.32,269.33-59.17,94.49-.15,200.16,7.12,269.72,58.85,3.16,2.63,3.02,4.33,0,4.23-85.11-7-180.55-10.52-269.72-9.6Z"/>
    <path class="cls-17" d="M113.39,263.57c147.8-9.22,295.61-9.06,443.41,0v18.34c-147.31-9.43-295.11-9.42-443.41-.08v-18.26Z"/>
    <path class="cls-21" d="M113.6,263.57h-.43,0s0-.02,0-.02h0s0-.02,0-.02h0s0-.02,0-.02h0s0-.02,0-.02h0s0-.02,0-.02h0s0-.02,0-.02h0s0-.02,0-.02h0s0-.02,0-.02h0s0-.01,0-.01h0s0-.01,0-.01h0s0-.01,0-.01h0s0,0,0,0h0s0,0,0,0h.01s.01,0,.01,0h.01s.01,0,.01,0h.01s.01,0,.01,0h.01s.01,0,.01,0h.01s.01,0,.01,0h.01s.01,0,.01,0h0s0,0,0,0h0s0,0,0,0h0s0,.01,0,.01h0s0,.01,0,.01h0s0,.01,0,.01h0s0,.02,0,.02h0s0,.02,0,.02h0s0,.02,0,.02h0s0,.02,0,.02h0s0,.02,0,.02h0s0,.02,0,.02h0s0,.02,0,.02h0s0,.02,0,.02ZM113.6,263.57v18.26h-.43v-18.26l.2-.21.23.21ZM113.38,281.62l.03.43h-.01s-.01,0-.01,0h-.01s-.01,0-.01,0h-.01s-.01,0-.01,0h-.01s0,0,0,0h0s0,0,0,0h0s0,0,0,0h0s0-.01,0-.01h0s0-.01,0-.01h0s0-.01,0-.01h0s0-.02,0-.02h0s0-.02,0-.02h0s0-.02,0-.02h0s0-.02,0-.02h0s0-.02,0-.02h0s0-.02,0-.02h0s0-.02,0-.02h0s0-.02,0-.02h0s0-.02,0-.02h0s0-.02,0-.02h0s0-.02,0-.02h0s0-.02,0-.02h0s0-.02,0-.02h0s0-.02,0-.02h0s0-.02,0-.02h0s0-.01,0-.01h0s0-.01,0-.01h0s0-.01,0-.01h0s0-.01,0-.01h0s0,0,0,0h0s.01,0,.01,0h.01s.01,0,.01,0h.01s.01,0,.01,0ZM113.18,281.83h.43l-.23-.21,13.9-.85,13.9-.79,13.9-.74,13.89-.68,13.89-.63,13.89-.57,13.89-.52,13.88-.46,13.88-.41,13.88-.36,13.87-.3,13.87-.25,13.87-.19,13.86-.14,13.86-.08,13.86-.03,13.86.03,13.85.08,13.85.14,13.85.19,13.84.25,13.84.3,13.84.36,13.84.41,13.83.47,13.83.53,13.83.58,13.82.64,13.82.69,13.82.75,13.82.8,13.81.86-.03.43-13.81-.86-13.81-.8-13.82-.75-13.82-.69-13.82-.63-13.83-.58-13.83-.52-13.83-.47-13.83-.41-13.84-.36-13.84-.3-13.84-.25-13.85-.19-13.85-.14-13.85-.08-13.85-.03-13.86.03-13.86.08-13.86.14-13.87.19-13.87.25-13.87.3-13.87.36-13.88.41-13.88.46-13.88.52-13.89.57-13.89.63-13.89.68-13.89.74-13.9.79-13.9.85-.23-.21ZM556.58,281.92h.43,0s0,.02,0,.02h0s0,.02,0,.02h0s0,.02,0,.02h0s0,.02,0,.02h0s0,.02,0,.02h0s0,.02,0,.02h0s0,.02,0,.02h0s0,.02,0,.02h0s0,.01,0,.01h0s0,.01,0,.01h0s0,.01,0,.01h0s0,0,0,0h0s0,0,0,0h-.01s-.01,0-.01,0h-.01s-.01,0-.01,0h-.01s-.01,0-.01,0h-.01s-.01,0-.01,0h-.01s-.01,0-.01,0h-.01s-.01,0-.01,0h0s0,0,0,0h0s0,0,0,0h0s0-.01,0-.01h0s0-.01,0-.01h0s0-.01,0-.01h0s0-.02,0-.02h0s0-.02,0-.02h0s0-.02,0-.02h0s0-.02,0-.02h0s0-.02,0-.02h0s0-.02,0-.02h0s0-.02,0-.02h0s0-.02,0-.02ZM556.58,281.92v-18.34h.43v18.34l-.23.21-.2-.21ZM556.78,263.79l.03-.43h.01s.01,0,.01,0h.01s.01,0,.01,0h.01s0,0,0,0h0s0,0,0,0h0s0,.01,0,.01h0s0,.01,0,.01h0s0,.01,0,.01h0s0,.01,0,.01h0s0,.02,0,.02h0s0,.02,0,.02h0s0,.02,0,.02h0s0,.02,0,.02h0s0,.02,0,.02h0s0,.02,0,.02h0s0,.02,0,.02h0s0,.02,0,.02h0s0,.02,0,.02h0s0,.02,0,.02h0s0,.02,0,.02h0s0,.02,0,.02h0s0,.02,0,.02h0s0,.02,0,.02h0s0,.02,0,.02h0s0,.01,0,.01h0s0,.01,0,.01h0s0,.01,0,.01h0s0,0,0,0h0s0,0,0,0h-.01s-.01,0-.01,0h-.01s-.01,0-.01,0h-.01s-.01,0-.01,0h-.01s-.01,0-.01,0ZM557.01,263.57h-.43l.2.21-13.86-.82-13.86-.77-13.86-.72-13.86-.67-13.86-.61-13.86-.56-13.86-.51-13.86-.46-13.86-.4-13.86-.35-13.86-.3-13.86-.24-13.86-.19-13.86-.14-13.86-.08-13.86-.03-13.86.02-13.86.08-13.86.13-13.86.18-13.86.24-13.86.29-13.86.35-13.86.4-13.86.45-13.86.51-13.86.56-13.86.62-13.86.67-13.86.73-13.86.78-13.86.84-.03-.43,13.86-.84,13.86-.78,13.86-.73,13.86-.67,13.86-.62,13.86-.56,13.86-.51,13.86-.45,13.86-.4,13.86-.35,13.86-.29,13.86-.24,13.86-.18,13.86-.13,13.86-.08,13.86-.02,13.86.03,13.86.08,13.86.14,13.86.19,13.86.24,13.86.3,13.86.35,13.86.4,13.86.46,13.86.51,13.86.56,13.86.61,13.86.67,13.86.72,13.86.77,13.86.82.2.21Z"/>
    <path class="cls-4" d="M113.39,263.57l.97,11.12c149.09-9.35,291.09-9.01,437.65.03l4.79-11.15"/>
    <path class="cls-10" d="M114.23,273.22c149.09-9.35,293.13-9.01,439.69.03"/>
    <path class="cls-16" d="M121.95,265.16c142.66-8.31,284.96-8.63,424.57-.55,2,.12,3.65,1.64,3.65,3.65h0c0,2.01-2.33,3.08-4.33,2.96-140.89-8.73-281.1-10.35-422,.03-2,.15-3.84-.23-4.45-1.21-1.32-2.15-.06-4.72,2.56-4.88"/>
    <text class="cls-1" transform="translate(110.27 315.24)"><tspan x="0" y="0">B</tspan></text>
    <path class="cls-21" d="M113.51,287.31l2.27-4.08,2.23,4.1-4.5-.02ZM115.98,286.97l-.06,12.57h-.43s.06-12.58.06-12.58h.43Z"/>
    <path class="cls-13" d="M115.76,263.47v18.26"/>
  </g>
  <path class="cls-21" d="M53.53,226.61h-.43,0s0-.02,0-.02h0s0-.02,0-.02h0s0-.02,0-.02h0s0-.02,0-.02h0s0-.02,0-.02h0s0-.02,0-.02h0s0-.02,0-.02h0s0-.02,0-.02h0s0-.01,0-.01h0s0-.01,0-.01h0s0-.01,0-.01h0s0,0,0,0h0s0,0,0,0h.01s.01,0,.01,0h.01s.01,0,.01,0h.01s.01,0,.01,0h.01s.01,0,.01,0h.01s.01,0,.01,0h.01s.01,0,.01,0h0s0,0,0,0h0s0,0,0,0h0s0,.01,0,.01h0s0,.01,0,.01h0s0,.01,0,.01h0s0,.02,0,.02h0s0,.02,0,.02h0s0,.02,0,.02h0s0,.02,0,.02h0s0,.02,0,.02h0s0,.02,0,.02h0s0,.02,0,.02h0s0,.02,0,.02ZM53.53,226.61v99.34h-.43v-99.34l.21-.21.21.21ZM53.32,325.74v.43h-.01s-.01,0-.01,0h-.01s-.01,0-.01,0h-.01s-.01,0-.01,0h0s0,0,0,0h0s0,0,0,0h0s0-.01,0-.01h0s0-.01,0-.01h0s0-.01,0-.01h0s0-.02,0-.02h0s0-.02,0-.02h0s0-.02,0-.02h0s0-.02,0-.02h0s0-.02,0-.02h0s0-.02,0-.02h0s0-.02,0-.02h0s0-.02,0-.02h0s0-.02,0-.02h0s0-.02,0-.02h0s0-.02,0-.02h0s0-.02,0-.02h0s0-.02,0-.02h0s0-.02,0-.02h0s0-.02,0-.02h0s0-.02,0-.02h0s0-.01,0-.01h0s0-.01,0-.01h0s0-.01,0-.01h0s0,0,0,0h0s0,0,0,0h.01s.01,0,.01,0h.01s.01,0,.01,0h.01s.01,0,.01,0ZM53.32,325.74h126.99v.43H53.32l-.21-.21.21-.21ZM180.1,325.95h.43,0s0,.02,0,.02h0s0,.02,0,.02h0s0,.02,0,.02h0s0,.02,0,.02h0s0,.02,0,.02h0s0,.02,0,.02h0s0,.02,0,.02h0s0,.02,0,.02h0s0,.01,0,.01h0s0,.01,0,.01h0s0,.01,0,.01h0s0,0,0,0h0s0,0,0,0h-.01s-.01,0-.01,0h-.01s-.01,0-.01,0h-.01s-.01,0-.01,0h-.01s-.01,0-.01,0h-.01s-.01,0-.01,0h-.01s-.01,0-.01,0h0s0,0,0,0h0s0,0,0,0h0s0-.01,0-.01h0s0-.01,0-.01h0s0-.01,0-.01h0s0-.02,0-.02h0s0-.02,0-.02h0s0-.02,0-.02h0s0-.02,0-.02h0s0-.02,0-.02h0s0-.02,0-.02h0s0-.02,0-.02h0s0-.02,0-.02ZM180.1,325.95v-99.34h.43v99.34l-.21.21-.21-.21ZM180.31,226.82v-.43h.01s.01,0,.01,0h.01s.01,0,.01,0h.01s.01,0,.01,0h0s0,0,0,0h0s0,0,0,0h0s0,.01,0,.01h0s0,.01,0,.01h0s0,.01,0,.01h0s0,.02,0,.02h0s0,.02,0,.02h0s0,.02,0,.02h0s0,.02,0,.02h0s0,.02,0,.02h0s0,.02,0,.02h0s0,.02,0,.02h0s0,.02,0,.02h0s0,.02,0,.02h0s0,.02,0,.02h0s0,.02,0,.02h0s0,.02,0,.02h0s0,.02,0,.02h0s0,.02,0,.02h0s0,.02,0,.02h0s0,.02,0,.02h0s0,.01,0,.01h0s0,.01,0,.01h0s0,.01,0,.01h0s0,0,0,0h0s0,0,0,0h-.01s-.01,0-.01,0h-.01s-.01,0-.01,0h-.01s-.01,0-.01,0ZM180.31,226.82H53.32v-.43h126.99l.21.21-.21.21Z"/>
  <path class="cls-16" d="M211.25,374.04c-49.94-.52-103.18,1.63-150.85,5.55-1.69.06-1.77-.9,0-2.37,38.96-28.97,97.93-33.23,150.85-33.14,52.92-.09,112.11,3.99,151.07,32.96,1.77,1.47,1.69,2.43,0,2.37-47.67-3.92-101.13-5.89-151.07-5.38"/>
  <g class="cls-3">
    <line class="cls-9" x1="59.1" y1="382.66" x2="363.62" y2="382.66"/>
    <line class="cls-9" x1="59.1" y1="379.59" x2="363.62" y2="379.59"/>
    <line class="cls-9" x1="59.1" y1="376.52" x2="363.62" y2="376.52"/>
    <line class="cls-9" x1="59.1" y1="373.45" x2="363.62" y2="373.45"/>
    <line class="cls-9" x1="59.1" y1="370.37" x2="363.62" y2="370.37"/>
    <line class="cls-9" x1="59.1" y1="367.3" x2="363.62" y2="367.3"/>
    <line class="cls-9" x1="59.1" y1="364.23" x2="363.62" y2="364.23"/>
    <line class="cls-9" x1="59.1" y1="361.16" x2="363.62" y2="361.16"/>
    <line class="cls-9" x1="59.1" y1="358.08" x2="363.62" y2="358.08"/>
    <line class="cls-9" x1="59.1" y1="355.01" x2="363.62" y2="355.01"/>
    <line class="cls-9" x1="59.1" y1="351.94" x2="363.62" y2="351.94"/>
    <line class="cls-9" x1="59.1" y1="348.87" x2="363.62" y2="348.87"/>
    <line class="cls-9" x1="59.1" y1="345.79" x2="363.62" y2="345.79"/>
    <line class="cls-12" x1="59.1" y1="391.88" x2="363.62" y2="391.88"/>
    <line class="cls-12" x1="59.1" y1="379.59" x2="363.62" y2="379.59"/>
    <line class="cls-12" x1="59.1" y1="367.3" x2="363.62" y2="367.3"/>
    <line class="cls-12" x1="59.1" y1="355.01" x2="363.62" y2="355.01"/>
    <line class="cls-9" x1="366.35" y1="379.59" x2="366.35" y2="344.08"/>
    <line class="cls-9" x1="363.27" y1="379.59" x2="363.27" y2="344.08"/>
    <line class="cls-9" x1="360.2" y1="379.59" x2="360.2" y2="344.08"/>
    <line class="cls-9" x1="357.13" y1="379.59" x2="357.13" y2="344.08"/>
    <line class="cls-9" x1="354.06" y1="379.59" x2="354.06" y2="344.08"/>
    <line class="cls-9" x1="350.98" y1="379.59" x2="350.98" y2="344.08"/>
    <line class="cls-9" x1="347.91" y1="379.59" x2="347.91" y2="344.08"/>
    <line class="cls-9" x1="344.84" y1="379.59" x2="344.84" y2="344.08"/>
    <line class="cls-9" x1="341.77" y1="379.59" x2="341.77" y2="344.08"/>
    <line class="cls-9" x1="338.69" y1="379.59" x2="338.69" y2="344.08"/>
    <line class="cls-9" x1="335.62" y1="379.59" x2="335.62" y2="344.08"/>
    <line class="cls-9" x1="332.55" y1="379.59" x2="332.55" y2="344.08"/>
    <line class="cls-9" x1="329.48" y1="379.59" x2="329.48" y2="344.08"/>
    <line class="cls-9" x1="326.4" y1="379.59" x2="326.4" y2="344.08"/>
    <line class="cls-9" x1="323.33" y1="379.59" x2="323.33" y2="344.08"/>
    <line class="cls-9" x1="320.26" y1="379.59" x2="320.26" y2="344.08"/>
    <line class="cls-9" x1="317.19" y1="379.59" x2="317.19" y2="344.08"/>
    <line class="cls-9" x1="314.11" y1="379.59" x2="314.11" y2="344.08"/>
    <line class="cls-9" x1="311.04" y1="379.59" x2="311.04" y2="344.08"/>
    <line class="cls-9" x1="307.97" y1="379.59" x2="307.97" y2="344.08"/>
    <line class="cls-9" x1="304.9" y1="379.59" x2="304.9" y2="344.08"/>
    <line class="cls-9" x1="301.82" y1="379.59" x2="301.82" y2="344.08"/>
    <line class="cls-9" x1="298.75" y1="379.59" x2="298.75" y2="344.08"/>
    <line class="cls-9" x1="295.68" y1="379.59" x2="295.68" y2="344.08"/>
    <line class="cls-9" x1="292.61" y1="379.59" x2="292.61" y2="344.08"/>
    <line class="cls-9" x1="289.53" y1="379.59" x2="289.53" y2="344.08"/>
    <line class="cls-9" x1="286.46" y1="379.59" x2="286.46" y2="344.08"/>
    <line class="cls-9" x1="283.39" y1="379.59" x2="283.39" y2="344.08"/>
    <line class="cls-9" x1="280.32" y1="379.59" x2="280.32" y2="344.08"/>
    <line class="cls-9" x1="277.24" y1="379.59" x2="277.24" y2="344.08"/>
    <line class="cls-9" x1="274.17" y1="379.59" x2="274.17" y2="344.08"/>
    <line class="cls-9" x1="271.1" y1="379.59" x2="271.1" y2="344.08"/>
    <line class="cls-9" x1="268.03" y1="379.59" x2="268.03" y2="344.08"/>
    <line class="cls-9" x1="264.95" y1="379.59" x2="264.95" y2="344.08"/>
    <line class="cls-9" x1="261.88" y1="379.59" x2="261.88" y2="344.08"/>
    <line class="cls-9" x1="258.81" y1="379.59" x2="258.81" y2="344.08"/>
    <line class="cls-9" x1="255.74" y1="379.59" x2="255.74" y2="344.08"/>
    <line class="cls-9" x1="252.67" y1="379.59" x2="252.67" y2="344.08"/>
    <line class="cls-9" x1="249.59" y1="379.59" x2="249.59" y2="344.08"/>
    <line class="cls-9" x1="246.52" y1="379.59" x2="246.52" y2="344.08"/>
    <line class="cls-9" x1="243.45" y1="379.59" x2="243.45" y2="344.08"/>
    <line class="cls-9" x1="240.38" y1="379.59" x2="240.38" y2="344.08"/>
    <line class="cls-9" x1="237.3" y1="379.59" x2="237.3" y2="344.08"/>
    <line class="cls-9" x1="234.23" y1="379.59" x2="234.23" y2="344.08"/>
    <line class="cls-9" x1="231.16" y1="379.59" x2="231.16" y2="344.08"/>
    <line class="cls-9" x1="228.09" y1="379.59" x2="228.09" y2="344.08"/>
    <line class="cls-9" x1="225.01" y1="379.59" x2="225.01" y2="344.08"/>
    <line class="cls-9" x1="221.94" y1="379.59" x2="221.94" y2="344.08"/>
    <line class="cls-9" x1="218.87" y1="379.59" x2="218.87" y2="344.08"/>
    <line class="cls-9" x1="215.8" y1="379.59" x2="215.8" y2="344.08"/>
    <line class="cls-9" x1="212.72" y1="379.59" x2="212.72" y2="344.08"/>
    <line class="cls-9" x1="209.65" y1="379.59" x2="209.65" y2="344.08"/>
    <line class="cls-9" x1="206.58" y1="379.59" x2="206.58" y2="344.08"/>
    <line class="cls-9" x1="203.51" y1="379.59" x2="203.51" y2="344.08"/>
    <line class="cls-9" x1="200.43" y1="379.59" x2="200.43" y2="344.08"/>
    <line class="cls-9" x1="197.36" y1="379.59" x2="197.36" y2="344.08"/>
    <line class="cls-9" x1="194.29" y1="379.59" x2="194.29" y2="344.08"/>
    <line class="cls-9" x1="191.22" y1="379.59" x2="191.22" y2="344.08"/>
    <line class="cls-9" x1="188.14" y1="379.59" x2="188.14" y2="344.08"/>
    <line class="cls-9" x1="185.07" y1="379.59" x2="185.07" y2="344.08"/>
    <line class="cls-9" x1="182" y1="379.59" x2="182" y2="344.08"/>
    <line class="cls-9" x1="178.93" y1="379.59" x2="178.93" y2="344.08"/>
    <line class="cls-9" x1="175.85" y1="379.59" x2="175.85" y2="344.08"/>
    <line class="cls-9" x1="172.78" y1="379.59" x2="172.78" y2="344.08"/>
    <line class="cls-9" x1="169.71" y1="379.59" x2="169.71" y2="344.08"/>
    <line class="cls-9" x1="166.64" y1="379.59" x2="166.64" y2="344.08"/>
    <line class="cls-9" x1="163.56" y1="379.59" x2="163.56" y2="344.08"/>
    <line class="cls-9" x1="160.49" y1="379.59" x2="160.49" y2="344.08"/>
    <line class="cls-9" x1="157.42" y1="379.59" x2="157.42" y2="344.08"/>
    <line class="cls-9" x1="154.35" y1="379.59" x2="154.35" y2="344.08"/>
    <line class="cls-9" x1="151.27" y1="379.59" x2="151.27" y2="344.08"/>
    <line class="cls-9" x1="148.2" y1="379.59" x2="148.2" y2="344.08"/>
    <line class="cls-9" x1="145.13" y1="379.59" x2="145.13" y2="344.08"/>
    <line class="cls-9" x1="142.06" y1="379.59" x2="142.06" y2="344.08"/>
    <line class="cls-9" x1="138.98" y1="379.59" x2="138.98" y2="344.08"/>
    <line class="cls-9" x1="135.91" y1="379.59" x2="135.91" y2="344.08"/>
    <line class="cls-9" x1="132.84" y1="379.59" x2="132.84" y2="344.08"/>
    <line class="cls-9" x1="129.77" y1="379.59" x2="129.77" y2="344.08"/>
    <line class="cls-9" x1="126.69" y1="379.59" x2="126.69" y2="344.08"/>
    <line class="cls-9" x1="123.62" y1="379.59" x2="123.62" y2="344.08"/>
    <line class="cls-9" x1="120.55" y1="379.59" x2="120.55" y2="344.08"/>
    <line class="cls-9" x1="117.48" y1="379.59" x2="117.48" y2="344.08"/>
    <line class="cls-9" x1="114.41" y1="379.59" x2="114.41" y2="344.08"/>
    <line class="cls-9" x1="111.33" y1="379.59" x2="111.33" y2="344.08"/>
    <line class="cls-9" x1="108.26" y1="379.59" x2="108.26" y2="344.08"/>
    <line class="cls-9" x1="105.19" y1="379.59" x2="105.19" y2="344.08"/>
    <line class="cls-9" x1="102.12" y1="379.59" x2="102.12" y2="344.08"/>
    <line class="cls-9" x1="99.04" y1="379.59" x2="99.04" y2="344.08"/>
    <line class="cls-9" x1="95.97" y1="379.59" x2="95.97" y2="344.08"/>
    <line class="cls-9" x1="92.9" y1="379.59" x2="92.9" y2="344.08"/>
    <line class="cls-9" x1="89.83" y1="379.59" x2="89.83" y2="344.08"/>
    <line class="cls-9" x1="86.75" y1="379.59" x2="86.75" y2="344.08"/>
    <line class="cls-9" x1="83.68" y1="379.59" x2="83.68" y2="344.08"/>
    <line class="cls-9" x1="80.61" y1="379.59" x2="80.61" y2="344.08"/>
    <line class="cls-9" x1="77.54" y1="379.59" x2="77.54" y2="344.08"/>
    <line class="cls-9" x1="74.46" y1="379.59" x2="74.46" y2="344.08"/>
    <line class="cls-9" x1="71.39" y1="379.59" x2="71.39" y2="344.08"/>
    <line class="cls-9" x1="68.32" y1="379.59" x2="68.32" y2="344.08"/>
    <line class="cls-9" x1="65.25" y1="379.59" x2="65.25" y2="344.08"/>
    <line class="cls-9" x1="62.17" y1="379.59" x2="62.17" y2="344.08"/>
    <line class="cls-9" x1="59.1" y1="379.59" x2="59.1" y2="344.08"/>
    <line class="cls-12" x1="366.35" y1="379.59" x2="366.35" y2="344.08"/>
    <line class="cls-12" x1="354.06" y1="379.59" x2="354.06" y2="344.08"/>
    <line class="cls-12" x1="341.77" y1="379.59" x2="341.77" y2="344.08"/>
    <line class="cls-12" x1="329.48" y1="379.59" x2="329.48" y2="344.08"/>
    <line class="cls-12" x1="317.19" y1="379.59" x2="317.19" y2="344.08"/>
    <line class="cls-12" x1="304.9" y1="379.59" x2="304.9" y2="344.08"/>
    <line class="cls-12" x1="292.61" y1="379.59" x2="292.61" y2="344.08"/>
    <line class="cls-12" x1="280.32" y1="379.59" x2="280.32" y2="344.08"/>
    <line class="cls-12" x1="268.03" y1="379.59" x2="268.03" y2="344.08"/>
    <line class="cls-12" x1="255.74" y1="379.59" x2="255.74" y2="344.08"/>
    <line class="cls-12" x1="243.45" y1="379.59" x2="243.45" y2="344.08"/>
    <line class="cls-12" x1="231.16" y1="379.59" x2="231.16" y2="344.08"/>
    <line class="cls-12" x1="218.87" y1="379.59" x2="218.87" y2="344.08"/>
    <line class="cls-12" x1="206.58" y1="379.59" x2="206.58" y2="344.08"/>
    <line class="cls-12" x1="194.29" y1="379.59" x2="194.29" y2="344.08"/>
    <line class="cls-12" x1="182" y1="379.59" x2="182" y2="344.08"/>
    <line class="cls-12" x1="169.71" y1="379.59" x2="169.71" y2="344.08"/>
    <line class="cls-12" x1="157.42" y1="379.59" x2="157.42" y2="344.08"/>
    <line class="cls-12" x1="145.13" y1="379.59" x2="145.13" y2="344.08"/>
    <line class="cls-12" x1="132.84" y1="379.59" x2="132.84" y2="344.08"/>
    <line class="cls-12" x1="120.55" y1="379.59" x2="120.55" y2="344.08"/>
    <line class="cls-12" x1="108.26" y1="379.59" x2="108.26" y2="344.08"/>
    <line class="cls-12" x1="95.97" y1="379.59" x2="95.97" y2="344.08"/>
    <line class="cls-12" x1="83.68" y1="379.59" x2="83.68" y2="344.08"/>
    <line class="cls-12" x1="71.39" y1="379.59" x2="71.39" y2="344.08"/>
    <line class="cls-12" x1="59.1" y1="379.59" x2="59.1" y2="344.08"/>
  </g>
  <path class="cls-5" d="M211.25,374.04c-49.94-.52-103.18,1.63-150.85,5.55-1.69.06-1.77-.9,0-2.37,38.96-28.97,97.93-33.23,150.85-33.14,52.92-.09,112.11,3.99,151.07,32.96,1.77,1.47,1.69,2.43,0,2.37-47.67-3.92-101.13-5.89-151.07-5.38Z"/>
  <path class="cls-17" d="M88.76,367.28c82.79-5.17,165.57-5.08,248.36,0v10.27c-82.51-5.28-165.3-5.28-248.36-.05v-10.23Z"/>
  <path class="cls-21" d="M88.98,367.28h-.43,0s0-.02,0-.02h0s0-.02,0-.02h0s0-.02,0-.02h0s0-.02,0-.02h0s0-.02,0-.02h0s0-.02,0-.02h0s0-.02,0-.02h0s0-.02,0-.02h0s0-.01,0-.01h0s0-.01,0-.01h0s0-.01,0-.01h0s0,0,0,0h0s0,0,0,0h.01s.01,0,.01,0h.01s.01,0,.01,0h.01s.01,0,.01,0h.01s.01,0,.01,0h.01s.01,0,.01,0h.01s.01,0,.01,0h0s0,0,0,0h0s0,0,0,0h0s0,.01,0,.01h0s0,.01,0,.01h0s0,.01,0,.01h0s0,.02,0,.02h0s0,.02,0,.02h0s0,.02,0,.02h0s0,.02,0,.02h0s0,.02,0,.02h0s0,.02,0,.02h0s0,.02,0,.02h0s0,.02,0,.02ZM88.98,367.28v10.23h-.43v-10.23l.2-.21.23.21ZM88.75,377.3l.03.43h-.01s-.01,0-.01,0h-.01s-.01,0-.01,0h-.01s-.01,0-.01,0h-.01s0,0,0,0h0s0,0,0,0h0s0,0,0,0h0s0-.01,0-.01h0s0-.01,0-.01h0s0-.01,0-.01h0s0-.02,0-.02h0s0-.02,0-.02h0s0-.02,0-.02h0s0-.02,0-.02h0s0-.02,0-.02h0s0-.02,0-.02h0s0-.02,0-.02h0s0-.02,0-.02h0s0-.02,0-.02h0s0-.02,0-.02h0s0-.02,0-.02h0s0-.02,0-.02h0s0-.02,0-.02h0s0-.02,0-.02h0s0-.02,0-.02h0s0-.01,0-.01h0s0-.01,0-.01h0s0-.01,0-.01h0s0-.01,0-.01h0s0,0,0,0h0s.01,0,.01,0h.01s.01,0,.01,0h.01s.01,0,.01,0ZM88.55,377.51h.43l-.23-.21,7.79-.48,7.79-.44,7.78-.41,7.78-.38,7.78-.35,7.78-.32,7.78-.29,7.78-.26,7.77-.23,7.77-.2,7.77-.17,7.77-.14,7.77-.11,7.77-.08,7.76-.04h7.76s7.76,0,7.76,0l7.76.05,7.76.08,7.76.11,7.75.14,7.75.17,7.75.2,7.75.23,7.75.26,7.75.29,7.75.32,7.74.36,7.74.39,7.74.42,7.74.45,7.74.48-.03.43-7.74-.48-7.74-.45-7.74-.42-7.74-.39-7.74-.36-7.74-.32-7.75-.29-7.75-.26-7.75-.23-7.75-.2-7.75-.17-7.75-.14-7.75-.11-7.76-.08-7.76-.05-7.76-.02h-7.76s-7.76.06-7.76.06l-7.76.08-7.77.11-7.77.14-7.77.17-7.77.2-7.77.23-7.77.26-7.78.29-7.78.32-7.78.35-7.78.38-7.78.41-7.78.44-7.79.48-.23-.21ZM336.91,377.56h.43,0s0,.02,0,.02h0s0,.02,0,.02h0s0,.02,0,.02h0s0,.02,0,.02h0s0,.02,0,.02h0s0,.02,0,.02h0s0,.02,0,.02h0s0,.02,0,.02h0s0,.01,0,.01h0s0,.01,0,.01h0s0,.01,0,.01h0s0,0,0,0h0s0,0,0,0h-.01s-.01,0-.01,0h-.01s-.01,0-.01,0h-.01s-.01,0-.01,0h-.01s-.01,0-.01,0h-.01s-.01,0-.01,0h-.01s-.01,0-.01,0h-.01s0,0,0,0h0s0,0,0,0h0s0-.01,0-.01h0s0-.01,0-.01h0s0-.01,0-.01h0s0-.02,0-.02h0s0-.02,0-.02h0s0-.02,0-.02h0s0-.02,0-.02h0s0-.02,0-.02h0s0-.02,0-.02h0s0-.02,0-.02h0s0-.02,0-.02ZM336.91,377.56v-10.27h.43v10.27l-.23.21-.2-.21ZM337.11,367.5l.03-.43h.01s.01,0,.01,0h.01s.01,0,.01,0h.01s.01,0,.01,0h0s0,0,0,0h0s0,.01,0,.01h0s0,.01,0,.01h0s0,.01,0,.01h0s0,.01,0,.01h0s0,.02,0,.02h0s0,.02,0,.02h0s0,.02,0,.02h0s0,.02,0,.02h0s0,.02,0,.02h0s0,.02,0,.02h0s0,.02,0,.02h0s0,.02,0,.02h0s0,.02,0,.02h0s0,.02,0,.02h0s0,.02,0,.02h0s0,.02,0,.02h0s0,.02,0,.02h0s0,.02,0,.02h0s0,.02,0,.02h0s0,.01,0,.01h0s0,.01,0,.01h0s0,.01,0,.01h0s0,0,0,0h0s0,0,0,0h0s-.01,0-.01,0h-.01s-.01,0-.01,0h-.01s-.01,0-.01,0h-.01s-.01,0-.01,0ZM337.33,367.28h-.43l.2.21-7.76-.46-7.76-.43-7.76-.4-7.76-.37-7.76-.34-7.76-.31-7.76-.28-7.76-.26-7.76-.23-7.76-.2-7.76-.17-7.76-.14-7.76-.11-7.76-.08-7.76-.05-7.76-.02h-7.76s-7.76.06-7.76.06l-7.76.07-7.76.1-7.76.13-7.76.16-7.76.19-7.76.22-7.76.25-7.76.29-7.76.32-7.76.35-7.76.38-7.76.41-7.76.44-7.76.47-.03-.43,7.76-.47,7.76-.44,7.76-.41,7.76-.38,7.76-.35,7.76-.32,7.76-.29,7.76-.25,7.76-.22,7.76-.19,7.76-.16,7.76-.13,7.76-.1,7.76-.07,7.76-.04h7.76s7.76,0,7.76,0l7.76.05,7.76.08,7.76.11,7.76.14,7.76.17,7.76.2,7.76.23,7.76.26,7.76.28,7.76.31,7.76.34,7.76.37,7.76.4,7.76.43,7.76.46.2.21Z"/>
  <path class="cls-4" d="M88.76,367.28v6.23c83.51-5.24,166.27-5.04,248.36.02v-6.24"/>
  <path class="cls-10" d="M88.76,372.69c83.51-5.24,166.27-5.04,248.36.02"/>
  <path class="cls-21" d="M221.42,381.43l2.27-4.08,2.23,4.1-4.5-.02ZM223.88,381.09l-.05,10.86h-.43s.05-10.86.05-10.86h.43Z"/>
  <line class="cls-5" x1="90.24" y1="367.19" x2="90.24" y2="377.41"/>
  <line class="cls-5" x1="335.72" y1="367.38" x2="335.72" y2="377.6"/>
  <path class="cls-15" d="M62.19,375.27c101.42-7.82,195.75-7.78,298.54.5l3.63,4.46c-102.42-7.48-204.49-7.25-306.22,0l4.05-4.96Z"/>
  <path class="cls-21" d="M62.36,375.41l-.33-.27h0s0-.02,0-.02h0s0-.01,0-.01h0s0-.01,0-.01h0s0-.01,0-.01h0s0,0,0,0h0s0,0,0,0h0s0,0,0,0h.01s.01,0,.01,0h.01s.01,0,.01,0h.01s.01,0,.01,0h.01s.01,0,.01,0h.01s0,0,0,0h0s0,0,0,0h0s0,0,0,0h0s0,.01,0,.01h0s0,.01,0,.01h0s0,.01,0,.01h0s0,.02,0,.02h0s0,.02,0,.02h0s0,.02,0,.02h0s0,.02,0,.02h0s0,.02,0,.02h0s0,.02,0,.02h0s0,.02,0,.02h0s0,.02,0,.02h0s0,.02,0,.02h0s0,.02,0,.02h0s0,.02,0,.02h0s0,.02,0,.02h0s0,.02,0,.02h0s0,.02,0,.02h0s0,.02,0,.02ZM62.36,375.41l-4.05,4.96-.33-.27,4.05-4.96.15-.08.18.35ZM58.12,380.02l.03.43h-.01s-.01,0-.01,0h-.01s-.01,0-.01,0h-.01s-.01,0-.01,0h-.01s0,0,0,0h0s0,0,0,0h0s0,0,0,0h0s0-.01,0-.01h0s0-.01,0-.01h0s0-.01,0-.01h0s0-.02,0-.02h0s0-.02,0-.02h0s0-.02,0-.02h0s0-.02,0-.02h0s0-.02,0-.02h0s0-.02,0-.02h0s0-.02,0-.02h0v-.02h0s0-.02,0-.02h0s0-.02,0-.02h0s0-.02,0-.02h0s0-.02,0-.02h0s0-.02,0-.02h0s0-.02,0-.02h0s0-.02,0-.02h0s0-.01,0-.01h0s0-.01,0-.01h0s0-.01,0-.01h0s0-.01,0-.01h0s0,0,0,0h0s0,0,0,0h.01s.01,0,.01,0h.01s.01,0,.01,0ZM57.97,380.1l.33.27-.18-.35,9.54-.66,9.54-.62,9.54-.58,9.55-.54,9.55-.49,9.55-.45,9.55-.41,9.55-.37,9.56-.33,9.56-.28,9.56-.24,9.56-.2,9.56-.16,9.57-.11,9.57-.07,9.57-.03,9.57.02,9.57.06,9.58.1,9.58.15,9.58.19,9.58.23,9.58.28,9.59.32,9.59.37,9.59.41,9.59.46,9.59.5,9.6.54,9.6.59,9.6.63,9.6.68-.03.43-9.6-.68-9.6-.63-9.6-.59-9.59-.54-9.59-.5-9.59-.45-9.59-.41-9.59-.37-9.58-.32-9.58-.28-9.58-.23-9.58-.19-9.58-.15-9.57-.1-9.57-.06-9.57-.02-9.57.03-9.56.07-9.56.11-9.56.16-9.56.2-9.56.24-9.56.28-9.55.33-9.55.37-9.55.41-9.55.45-9.55.49-9.54.54-9.54.58-9.54.62-9.54.66-.18-.35ZM364.19,380.37l.33-.27h0s0,.02,0,.02h0s0,.02,0,.02h0s0,.02,0,.02h0s0,.02,0,.02h0s0,.02,0,.02h0s0,.02,0,.02h0s0,.02,0,.02h0s0,.02,0,.02h0s0,.02,0,.02h0s0,.02,0,.02h0s0,.02,0,.02h0s0,.02,0,.02h0s0,.02,0,.02h0s0,.02,0,.02h0s0,.02,0,.02h0s0,.01,0,.01h0s0,.01,0,.01h0s0,.01,0,.01h0s0,0,0,0h0s0,0,0,0h0s-.01,0-.01,0h-.01s-.01,0-.01,0h-.01s-.01,0-.01,0h-.01s-.01,0-.01,0h-.01s-.01,0-.01,0h0s0,0,0,0h0s0,0,0,0h0s0,0,0,0h0s0-.01,0-.01h0s0-.01,0-.01h0s0-.01,0-.01h0s0-.02,0-.02ZM364.19,380.37l-3.63-4.46.33-.27,3.63,4.46-.18.35-.15-.08ZM360.71,375.99l.03-.43h.01s.01,0,.01,0h.01s.01,0,.01,0h0s0,0,0,0h0s0,0,0,0h0s0,.01,0,.01h0s0,.01,0,.01h0s0,.01,0,.01h0s0,.02,0,.02h0s0,.02,0,.02h0s0,.02,0,.02h0s0,.02,0,.02h0s0,.02,0,.02h0s0,.02,0,.02h0s0,.02,0,.02h0s0,.02,0,.02h0s0,.02,0,.02h0s0,.02,0,.02h0s0,.02,0,.02h0s0,.02,0,.02h0s0,.02,0,.02h0s0,.02,0,.02h0s0,.02,0,.02h0s0,.02,0,.02h0s0,.01,0,.01h0s0,.01,0,.01h0s0,.01,0,.01h0s0,0,0,0h0s0,0,0,0h-.01s-.01,0-.01,0h-.01s-.01,0-.01,0h-.01s-.01,0-.01,0h-.01s-.01,0-.01,0ZM360.89,375.64l-.33.27.15.08-9.61-.75-9.56-.7-9.52-.66-9.48-.61-9.44-.56-9.41-.51-9.37-.46-9.34-.42-9.32-.37-9.29-.32-9.27-.27-9.25-.23-9.24-.18-9.23-.13-9.22-.08-9.21-.04h-9.21s-9.2.07-9.2.07l-9.21.1-9.21.15-9.22.2-9.23.25-9.24.29-9.26.34-9.28.39-9.3.43-9.32.48-9.35.52-9.38.57-9.41.62-9.45.66-9.49.71-.03-.43,9.49-.71,9.45-.66,9.41-.62,9.38-.57,9.35-.52,9.32-.48,9.3-.43,9.28-.39,9.26-.34,9.24-.29,9.23-.25,9.22-.2,9.21-.15,9.21-.1,9.21-.06h9.21s9.21.03,9.21.03l9.22.08,9.23.13,9.24.18,9.26.23,9.27.27,9.3.32,9.32.37,9.35.42,9.38.46,9.41.51,9.44.56,9.48.61,9.52.66,9.57.7,9.61.75.15.08Z"/>
  <path class="cls-10" d="M60.91,376.84c100.15-8.64,200.62-8.56,301.41.2"/>
  <path class="cls-15" d="M211.62,348.53c89.38,1.86,111.66,7.84,153.69,31.94l2.16-4.81c-48.57-27.06-74.31-30.52-155.85-31.94-81.54,1.41-109.07,5.51-155.85,31.94l2.16,4.81c42.03-24.09,64.31-30.07,153.69-31.94Z"/>
  <path class="cls-4" d="M211.62,348.53c89.38,1.86,111.66,7.84,153.69,31.94l2.16-4.81c-48.57-27.06-74.31-30.52-155.85-31.94-81.54,1.41-109.07,5.51-155.85,31.94l2.16,4.81c42.03-24.09,64.31-30.07,153.69-31.94Z"/>
  <path class="cls-21" d="M319.1,346.76l-3.36,3.23-.93-4.57,4.29,1.34ZM316.65,346.37l2.49-8,.41.13-2.49,8-.41-.13Z"/>
  <text class="cls-2" transform="translate(318.51 337.07)"><tspan x="0" y="0">D</tspan></text>
  <text class="cls-2" transform="translate(220.72 400.82)"><tspan x="0" y="0">C</tspan></text>
  <text class="cls-2" transform="translate(373.83 360.37)"><tspan x="0" y="0">E</tspan></text>
  <path class="cls-21" d="M371.56,370.61l-4.15,2.13.42-4.65,3.73,2.52ZM369.32,369.53l4.43-6.57.35.24-4.43,6.57-.35-.24Z"/>
  <text class="cls-2" transform="translate(43.17 360.37)"><tspan x="0" y="0">E</tspan></text>
  <path class="cls-21" d="M56.35,368.1l.42,4.65-4.15-2.13,3.73-2.52ZM54.51,369.77l-4.43-6.57.35-.24,4.43,6.57-.35.24Z"/>
  <path class="cls-10" d="M57.43,379.36c47.08-28.11,81.8-31.01,154.26-31.5,61.12-.42,104.06,2.14,153.82,31.34"/>
  <line class="cls-7" x1="57.52" y1="374.67" x2="60.4" y2="380.08"/>
  <line class="cls-7" x1="365.35" y1="374.49" x2="362.68" y2="380.11"/>
</svg>